<svg width="104" height="16" xmlns="http://www.w3.org/2000/svg">
    <g fill="none" fill-rule="evenodd">
        <path d="M-8-8h120v32H-8z"/>
        <path d="M6.906 11.184c.154.363.103.829.026 1.114-.13.492-.464 1.01-1.443 1.01-.928 0-1.495-.544-1.495-1.347v-1.45H0v1.14C0 14.99 2.603 16 5.411 16c2.68 0 4.896-.932 5.257-3.417.18-1.295.052-2.123-.026-2.46-.618-3.133-6.261-4.065-6.7-5.8a2.028 2.028 0 0 1-.025-.776c.103-.466.438-1.01 1.365-1.01.877 0 1.392.544 1.392 1.346v.933h3.71V3.754C10.385.492 7.474 0 5.36 0 2.706 0 .567.88.155 3.314c-.103.673-.13 1.269.025 2.02.67 3.028 5.953 3.909 6.726 5.85zm48.315-.025c.155.362.103.828.026 1.087-.13.492-.464.984-1.443.984-.928 0-1.469-.544-1.469-1.347V10.46h-3.943v1.139c0 3.288 2.577 4.297 5.36 4.297 2.654 0 4.845-.906 5.205-3.391.18-1.269.052-2.123-.025-2.434-.619-3.107-6.21-4.013-6.623-5.747a2.028 2.028 0 0 1-.026-.777c.104-.466.413-.984 1.34-.984.85 0 1.366.544 1.366 1.346v.907h3.685V3.78C58.674.57 55.788.052 53.7.052c-2.603 0-4.742.88-5.154 3.288-.103.647-.129 1.243.026 1.993.67 3.03 5.9 3.91 6.648 5.826zm30.844 1.32L85.86.466h3.685v14.757h-5.308L80.5 2.822l.206 12.401h-3.66V.466h5.515l3.504 12.013zM19.25 1.553 17.187 15.38h-4.02L15.9.466h6.622l2.732 14.913h-3.994l-2.01-13.826zm21.696 0L38.37 15.38h-3.762L32.056 1.553l-.104 13.826h-3.71L28.55.466h6.056l1.88 11.65L38.37.467h6.055l.335 14.913h-3.71l-.104-13.826zm26.748 11.6c1.03 0 1.365-.726 1.417-1.088.026-.156.026-.389.026-.57V.44h3.762V11.16c0 .284-.026.828-.026.983-.258 2.797-2.448 3.703-5.18 3.703-2.73 0-4.92-.906-5.179-3.703a5.834 5.834 0 0 1-.025-.983V.44h3.762v11.055c0 .181 0 .414.026.57.077.388.386 1.087 1.417 1.087zm31.025-.156c1.082 0 1.443-.7 1.52-1.088.026-.18.051-.388.026-.57V9.166h-1.52V6.99H104v4.013c0 .285 0 .492-.052.984-.257 2.719-2.602 3.676-5.23 3.676-2.629 0-4.974-.957-5.231-3.676-.052-.492-.052-.699-.052-.984V4.712c0-.259.026-.725.052-.984.335-2.796 2.576-3.676 5.23-3.676 2.629 0 4.948.88 5.206 3.676.051.466.025.984.025.984v.492h-3.762v-.829s0-.362-.051-.57c-.078-.336-.361-1.087-1.495-1.087-1.082 0-1.391.725-1.469 1.088-.051.207-.051.466-.051.699v6.835c0 .181 0 .388.026.57.103.414.49 1.087 1.572 1.087z" fill="#FFF" fill-rule="nonzero"/>
    </g>
</svg>
