<?xml version="1.0" encoding="UTF-8"?>
<svg width="96px" height="96px" viewBox="0 0 96 96" version="1.1" xmlns="http://www.w3.org/2000/svg" xmlns:xlink="http://www.w3.org/1999/xlink">
    <title>Icon / 2. Regular / GNB / Automotive memory</title>
    <g id="Icon-/-2.-Regular-/-GNB-/-Automotive-memory" stroke="none" stroke-width="1" fill="none" fill-rule="evenodd">
        <rect id="Container" fill="#D8D8D8" opacity="0" x="0" y="0" width="96" height="96"></rect>
        <path d="M37.9302975,19.5 L38,19.5 L38,23.000639 L35.9320761,23.254279 C31.5159607,23.8132565 28.1401126,24.3998098 25.9665707,24.9259029 L25.5502416,25.0296976 L25.0748343,25.1569653 L24.6499477,25.2812017 C23.8510638,25.5264428 23.3586223,25.7516932 23.1925327,25.946136 C22.3388484,26.9455531 20.4739119,30.8898774 17.8152537,37.4559799 C17.2551345,38.8325087 15.7029495,39.515382 14.3104387,38.9987247 L10.7510113,37.6798954 C10.1051538,37.440594 9.3874152,37.7688376 9.14600931,38.4139114 L8.5303228,40.0591207 C8.31164003,40.6434749 8.55735225,41.2996011 9.10608031,41.5965681 L12.6114567,43.4936867 C13.825713,44.1411145 14.3715602,45.586786 13.8898073,46.8793396 L10.7277526,55.3637358 L10.6528299,55.5750247 L10.6313654,55.6695479 L10.6094842,55.8337718 C10.5343613,56.5190119 10.4774717,58.3277487 10.5297653,60.116622 L10.5516872,60.7328543 L10.5806313,61.3294945 C10.6883332,63.2816919 10.905834,64.8481031 11.1607334,65.4361982 C11.6382767,66.5379698 13.060685,67.3278891 15.4940259,68.1090105 C22.3347127,70.3049244 30.1483686,71.1590395 41.4683061,71.2264034 L46.651827,71.2372405 L48.7308049,71.2370018 L50.8061387,71.2284966 L52.1786995,71.2171223 C63.178318,71.1048053 69.1269504,70.5054575 76.264672,68.6050912 C77.4849505,68.280201 80.2308304,66.7768865 81.052962,65.9693177 L81.1490033,65.8680823 C81.1055271,65.9179423 81.1374978,65.845896 81.1828856,65.6641021 C81.2613661,65.3497606 81.3231697,64.90486 81.3611689,64.3403524 C81.4437664,63.1133029 81.4098862,61.4012971 81.2555155,59.2214766 L81.7695141,59.235702 C82.2483459,59.2451856 82.6216769,59.2404438 82.8895073,59.2214766 L83.1983421,59.1938911 C83.5932795,59.1525889 84.1094228,59.0793694 84.7467718,58.9742326 L84.8015606,59.799888 C84.9552472,62.2958273 84.9564079,64.1994785 84.7511786,65.6121766 L84.75,78 C84.75,80.0710678 83.0710678,81.75 81,81.75 L73,81.75 C70.9289322,81.75 69.25,80.0710678 69.25,78.000208 L69.2491559,73.6537313 L68.3631218,73.7817732 C63.1618659,74.499938 57.3464022,74.7206252 48.7355002,74.7370237 L42.9649123,74.7307739 C34.8160304,74.7307739 28.3572684,74.3624896 22.7494543,73.4297483 L22.75,78 C22.75,80.0710678 21.0710678,81.75 19,81.75 L11,81.75 C8.92893219,81.75 7.25,80.0710678 7.25,78 L7.25,63.7503204 L7.29243007,63.7510095 C6.88873954,60.3872937 6.89153933,55.7346238 7.34717012,54.4249753 L7.99180596,52.6596527 L10.381,46.265 L7.44022001,44.6747022 C5.42231682,43.58263 4.48278425,41.2123844 5.17741103,39.0480901 L5.25234149,38.8324022 L5.86802799,37.1871928 C6.78537039,34.7359124 9.51277711,33.4885866 11.9670355,34.3979318 L14.846,35.464 L15.5939682,33.6485405 L16.2080833,32.1876941 C17.0702144,30.1593743 17.8250606,28.4844127 18.4819737,27.1488707 L18.7277093,26.6560857 C19.450795,25.2268995 20.0473089,24.239461 20.5312452,23.6729116 C22.0532573,21.8910762 27.421867,20.7018051 37.7295548,19.5115517 L37.9302975,19.5 Z M10.7491138,69.9059223 L10.75,78 C10.75,78.1380712 10.8619288,78.25 11,78.25 L19,78.25 C19.1380712,78.25 19.25,78.1380712 19.25,78.0001356 L19.2496047,72.7495919 C17.583146,72.3760114 15.9834872,71.9420414 14.4242647,71.4415188 C12.9532566,70.9693137 11.7382925,70.4903948 10.7491138,69.9059223 Z M77.1651525,71.9872702 C75.6568165,72.3888537 74.2022401,72.7347461 72.7487412,73.0320286 L72.75,78 C72.75,78.1380712 72.8619288,78.25 73,78.25 L81,78.25 C81.1380712,78.25 81.25,78.1380712 81.25,77.9998395 L81.2515518,70.1000693 C79.8478661,70.9465019 78.242302,71.700487 77.1651525,71.9872702 Z M23.5,50 C26.5375661,50 29,52.4624339 29,55.5 C29,58.5375661 26.5375661,61 23.5,61 C20.4624339,61 18,58.5375661 18,55.5 C18,52.4624339 20.4624339,50 23.5,50 Z M23.5,52.75 C21.9812169,52.75 20.75,53.9812169 20.75,55.5 C20.75,57.0187831 21.9812169,58.25 23.5,58.25 C25.0187831,58.25 26.25,57.0187831 26.25,55.5 C26.25,53.9812169 25.0187831,52.75 23.5,52.75 Z M84.9649123,7 C88.2786208,7 90.9649123,9.6862915 90.9649123,13 L90.9649123,49 C90.9649123,52.3137085 88.2786208,55 84.9649123,55 L48.9649123,55 C45.6512038,55 42.9649123,52.3137085 42.9649123,49 L42.9649123,13 C42.9649123,9.6862915 45.6512038,7 48.9649123,7 L84.9649123,7 Z M84.9649123,10 L48.9649123,10 C47.308058,10 45.9649123,11.3431458 45.9649123,13 L45.9649123,49 C45.9649123,50.6568542 47.308058,52 48.9649123,52 L84.9649123,52 C86.6217665,52 87.9649123,50.6568542 87.9649123,49 L87.9649123,13 C87.9649123,11.3431458 86.6217665,10 84.9649123,10 Z M77.9649123,17 C79.6217665,17 80.9649123,18.3431458 80.9649123,20 L80.9649123,42 C80.9649123,43.6568542 79.6217665,45 77.9649123,45 L55.9649123,45 C54.308058,45 52.9649123,43.6568542 52.9649123,42 L52.9649123,20 C52.9649123,18.3431458 54.308058,17 55.9649123,17 L77.9649123,17 Z M77.9649123,20 L55.9649123,20 L55.9649123,42 L77.9649123,42 L77.9649123,20 Z M37.9302975,27.6648789 L37.9302975,41.8918789 L25.7127332,41.8923077 C25.4738559,41.8923077 25.2371051,41.8474267 25.0148012,41.7600003 C24.0346784,41.3745431 23.5526067,40.2675218 23.9380639,39.287399 L26.3046636,33.269718 C27.301406,30.7352472 29.5737994,28.9244568 32.2668245,28.5186815 L37.9302975,27.6648789 Z M71.96,34.5 C72.7884271,34.5 73.46,35.1715729 73.46,36 C73.46,36.8284271 72.7884271,37.5 71.96,37.5 C71.1315729,37.5 70.46,36.8284271 70.46,36 C70.46,35.1715729 71.1315729,34.5 71.96,34.5 Z M66.96,34.5 C67.7884271,34.5 68.46,35.1715729 68.46,36 C68.46,36.8284271 67.7884271,37.5 66.96,37.5 C66.1315729,37.5 65.46,36.8284271 65.46,36 C65.46,35.1715729 66.1315729,34.5 66.96,34.5 Z M61.96,34.5 C62.7884271,34.5 63.46,35.1715729 63.46,36 C63.46,36.8284271 62.7884271,37.5 61.96,37.5 C61.1315729,37.5 60.46,36.8284271 60.46,36 C60.46,35.1715729 61.1315729,34.5 61.96,34.5 Z M71.96,29.5 C72.7884271,29.5 73.46,30.1715729 73.46,31 C73.46,31.8284271 72.7884271,32.5 71.96,32.5 C71.1315729,32.5 70.46,31.8284271 70.46,31 C70.46,30.1715729 71.1315729,29.5 71.96,29.5 Z M66.96,29.5 C67.7884271,29.5 68.46,30.1715729 68.46,31 C68.46,31.8284271 67.7884271,32.5 66.96,32.5 C66.1315729,32.5 65.46,31.8284271 65.46,31 C65.46,30.1715729 66.1315729,29.5 66.96,29.5 Z M61.96,29.5 C62.7884271,29.5 63.46,30.1715729 63.46,31 C63.46,31.8284271 62.7884271,32.5 61.96,32.5 C61.1315729,32.5 60.46,31.8284271 60.46,31 C60.46,30.1715729 61.1315729,29.5 61.96,29.5 Z M71.96,24.5 C72.7884271,24.5 73.46,25.1715729 73.46,26 C73.46,26.8284271 72.7884271,27.5 71.96,27.5 C71.1315729,27.5 70.46,26.8284271 70.46,26 C70.46,25.1715729 71.1315729,24.5 71.96,24.5 Z M66.96,24.5 C67.7884271,24.5 68.46,25.1715729 68.46,26 C68.46,26.8284271 67.7884271,27.5 66.96,27.5 C66.1315729,27.5 65.46,26.8284271 65.46,26 C65.46,25.1715729 66.1315729,24.5 66.96,24.5 Z M61.96,24.5 C62.7884271,24.5 63.46,25.1715729 63.46,26 C63.46,26.8284271 62.7884271,27.5 61.96,27.5 C61.1315729,27.5 60.46,26.8284271 60.46,26 C60.46,25.1715729 61.1315729,24.5 61.96,24.5 Z" id="Shape" fill="#FFFFFF" fill-rule="nonzero"></path>
    </g>
</svg>