<svg width="96" height="96" xmlns="http://www.w3.org/2000/svg">
    <g fill="#000" fill-rule="evenodd">
        <circle opacity=".07" cx="48" cy="48" r="48"/>
        <path d="M50.01 30c2.76.012 15.88.117 19.444 1.1a6.416 6.416 0 0 1 4.496 4.533c.936 3.449 1.039 10.103 1.05 11.933v.668c-.005.743-.037 3.558-.256 6.495l-.047.589-.052.588c-.154 1.663-.377 3.283-.695 4.505a6.416 6.416 0 0 1-4.496 4.532c-1.809.48-6.079.742-10.206.885l-.727.025c-3.74.118-7.234.142-8.51.147h-.22l-.087.001h-.714a309.955 309.955 0 0 1-8.858-.167l-.728-.026-.729-.029-.727-.032c-3.507-.16-6.844-.421-8.403-.847a6.416 6.416 0 0 1-4.495-4.532c-.375-1.422-.616-3.406-.771-5.368l-.044-.588A103.634 103.634 0 0 1 24 48.274v-.545c.01-1.467.111-8.504 1.049-12.096.588-2.203 2.352-3.982 4.495-4.575 1.543-.41 4.876-.66 8.385-.814l.727-.03c4.376-.176 8.85-.208 10.332-.213zm-5.594 10.292v15.417L57.692 48l-13.276-7.708z" fill-rule="nonzero"/>
    </g>
</svg>
