<?xml version="1.0" encoding="UTF-8"?>
<svg width="28px" height="28px" viewBox="0 0 28 28" version="1.1" xmlns="http://www.w3.org/2000/svg" xmlns:xlink="http://www.w3.org/1999/xlink">
    <title>Icon-GNB-Manufacturing</title>
    <g id="Page-1" stroke="none" stroke-width="1" fill="none" fill-rule="evenodd">
        <g id="Icon-GNB" transform="translate(-182.000000, -361.000000)">
            <g id="Icon-GNB-Manufacturing" transform="translate(182.000000, 361.000000)">
                <rect id="Rectangle" fill="#FFFFFF" opacity="0" x="0" y="0" width="28" height="28"></rect>
                <g id="Group">
                    <polygon id="Fill-1" points="0 28 28 28 28 0 0 0"></polygon>
                    <g id="Group-118" transform="translate(2.000000, 4.000000)" fill="#FFFFFF">
                        <path d="M6.1,0 C9.46893697,0 12.2,2.73106303 12.2,6.1 C12.2,7.62762251 11.6354605,9.06697327 10.6384043,10.1760136 L10.44642,10.3800288 L9.87642299,9.81868802 C10.8467543,8.83339357 11.4,7.51089989 11.4,6.1 C11.4,3.17289083 9.02710917,0.8 6.1,0.8 C3.17289083,0.8 0.8,3.17289083 0.8,6.1 C0.8,7.5999682 1.4263704,8.99703757 2.50146306,9.99118142 L2.69580716,10.1623749 L2.1816371,10.7752608 C0.808749026,9.62350008 0,7.92724469 0,6.1 C0,2.73106303 2.73106303,0 6.1,0 Z" id="Path" fill-rule="nonzero"></path>
                        <path d="M3.8437,7.8243 L4.5347,8.5143 L3.8437,9.2053 L3.1527,8.5143 L3.8437,7.8243 Z M7.2971,6.6731 L7.9881,7.3631 L7.2971,8.0541 L6.6061,7.3631 L7.2971,6.6731 Z M4.9948,6.6731 L5.6858,7.3631 L4.9948,8.0541 L4.3038,7.3631 L4.9948,6.6731 Z M2.6925,6.6731 L3.3835,7.3631 L2.6925,8.0541 L2.0015,7.3631 L2.6925,6.6731 Z M8.4483,5.522 L9.1393,6.212 L8.4483,6.903 L7.7573,6.212 L8.4483,5.522 Z M6.146,5.5219 L6.837,6.2119 L6.146,6.9029 L5.455,6.2119 L6.146,5.5219 Z M3.8437,5.5219 L4.5347,6.2119 L3.8437,6.9029 L3.1527,6.2119 L3.8437,5.5219 Z M9.5995,4.3708 L10.2905,5.0608 L9.5995,5.7518 L8.9085,5.0608 L9.5995,4.3708 Z M7.2971,4.3708 L7.9881,5.0608 L7.2971,5.7518 L6.6061,5.0608 L7.2971,4.3708 Z M4.9948,4.3708 L5.6858,5.0608 L4.9948,5.7518 L4.3038,5.0608 L4.9948,4.3708 Z M2.6925,4.3708 L3.3835,5.0608 L2.6925,5.7518 L2.0015,5.0608 L2.6925,4.3708 Z M8.4483,3.2196 L9.1393,3.9096 L8.4483,4.6006 L7.7573,3.9096 L8.4483,3.2196 Z M6.146,3.2196 L6.837,3.9096 L6.146,4.6006 L5.455,3.9096 L6.146,3.2196 Z M3.8437,3.2196 L4.5347,3.9096 L3.8437,4.6006 L3.1527,3.9096 L3.8437,3.2196 Z M7.2971,2.0684 L7.9881,2.7584 L7.2971,3.4494 L6.6061,2.7584 L7.2971,2.0684 Z M4.9948,2.0684 L5.6858,2.7584 L4.9948,3.4494 L4.3038,2.7584 L4.9948,2.0684 Z" id="Combined-Shape"></path>
                        <path d="M23.3,7 L16.3,9.967 L16.3,7 L9.3,9.967 L9.3,7 L2.223,10 L2.223,19 L9.223,19 L9.3,19 L16.223,19 L16.3,19 L23.3,19 L23.3,7 Z M8.3,8.51 L8.3,9.967 L8.3,11.477 L9.69,10.888 L15.3,8.51 L15.3,9.967 L15.3,11.477 L16.69,10.888 L22.3,8.51 L22.3,18 L16.3,18 L16.223,18 L9.3,18 L9.223,18 L3.223,18 L3.223,10.662 L8.3,8.51 Z" id="Fill-116"></path>
                    </g>
                </g>
            </g>
        </g>
    </g>
</svg>