<?xml version="1.0" encoding="UTF-8"?>
<svg width="28px" height="28px" viewBox="0 0 28 28" version="1.1" xmlns="http://www.w3.org/2000/svg" xmlns:xlink="http://www.w3.org/1999/xlink">
    <title>68E07C05-567D-4536-BF4F-0CFA8D716C7C</title>
    <g id="ðŸ·-GNB" stroke="none" stroke-width="1" fill="none" fill-rule="evenodd">
        <g id="GNB_0812_Foundry_PC" transform="translate(-370.000000, -278.000000)">
            <g id="NAV" transform="translate(0.000000, 60.000000)">
                <g id="1line" transform="translate(370.000000, 47.999938)">
                    <g id="Icon-/-Extra-light-/-GNB-/-Event" transform="translate(0.000000, 170.000062)">
                        <rect id="Container" fill="#D8D8D8" opacity="0" x="0" y="0" width="28" height="28"></rect>
                        <path d="M19,3 C19.2454599,3 19.4496084,3.17687516 19.4919443,3.41012437 L19.5,3.5 L19.5,5 L22,5 C23.0547727,5 23.9182025,5.81548554 23.9945168,6.85068417 L24,7 L24,23 C24,24.0547727 23.1845145,24.9182025 22.1493158,24.9945168 L22,25 L6,25 C4.94522727,25 4.08179752,24.1845145 4.00548319,23.1493158 L4,23 L4,7 C4,5.94522727 4.81548554,5.08179752 5.85068417,5.00548319 L6,5 L8.5,5 L8.5,3.5 C8.5,3.22385763 8.72385763,3 9,3 C9.24545989,3 9.44960837,3.17687516 9.49194433,3.41012437 L9.5,3.5 L9.5,5 L18.5,5 L18.5,3.5 C18.5,3.22385763 18.7238576,3 19,3 Z M23,10.5 L5,10.5 L5,23 C5,23.5116429 5.38714796,23.9353367 5.88361625,23.993254 L6,24 L22,24 C22.5116429,24 22.9353367,23.612852 22.993254,23.1163837 L23,23 L23,10.5 Z M19,18 L19,20 L17,20 L17,18 L19,18 Z M15,18 L15,20 L13,20 L13,18 L15,18 Z M11,18 L11,20 L9,20 L9,18 L11,18 Z M19,14 L19,16 L17,16 L17,14 L19,14 Z M15,14 L15,16 L13,16 L13,14 L15,14 Z M11,14 L11,16 L9,16 L9,14 L11,14 Z M8.5,6 L6,6 C5.48835714,6 5.06466327,6.38714796 5.00674599,6.88361625 L5,7 L5,9.5 L23,9.5 L23,7 C23,6.48835714 22.612852,6.06466327 22.1163837,6.00674599 L22,6 L19.5,6 L19.5,7.5 C19.5,7.77614237 19.2761424,8 19,8 C18.7545401,8 18.5503916,7.82312484 18.5080557,7.58987563 L18.5,7.5 L18.5,6 L9.5,6 L9.5,7.5 C9.5,7.77614237 9.27614237,8 9,8 C8.75454011,8 8.55039163,7.82312484 8.50805567,7.58987563 L8.5,7.5 L8.5,6 Z" id="Shape" fill="#FFFFFF"></path>
                    </g>
                </g>
            </g>
        </g>
    </g>
</svg>