<?xml version="1.0" encoding="UTF-8"?>
<svg width="28px" height="28px" viewBox="0 0 28 28" version="1.1" xmlns="http://www.w3.org/2000/svg" xmlns:xlink="http://www.w3.org/1999/xlink">
    <title>Icon-GNB-eStorage</title>
    <g id="Page-1" stroke="none" stroke-width="1" fill="none" fill-rule="evenodd">
        <g id="Icon-GNB" transform="translate(-183.000000, -73.000000)">
            <g id="Icon-GNB-eStorage" transform="translate(183.000000, 73.000000)">
                <g id="Group">
                    <polygon id="Fill-1" points="0 28 28 28 28 0 0 0"></polygon>
                    <g id="icon" transform="translate(4.000400, 4.000000)" fill="#FFFFFF">
                        <path d="M18.636,0 L1.363,0 C0.61,0 0,0.611 0,1.364 L0,18.636 C0,19.389 0.61,20 1.363,20 L18.636,20 C19.389,20 20,19.389 20,18.636 L20,1.364 C20,0.611 19.389,0 18.636,0 M18.636,0.909 C18.887,0.909 19.091,1.113 19.091,1.364 L19.091,18.636 C19.091,18.887 18.887,19.091 18.636,19.091 L1.363,19.091 C1.113,19.091 0.909,18.887 0.909,18.636 L0.909,1.364 C0.909,1.113 1.113,0.909 1.363,0.909 L18.636,0.909" id="Fill-2"></path>
                        <path d="M3.4558,2.9209 C3.4558,3.2219 3.2118,3.4659 2.9108,3.4659 C2.6088,3.4659 2.3648,3.2219 2.3648,2.9209 C2.3648,2.6199 2.6088,2.3759 2.9108,2.3759 C3.2118,2.3759 3.4558,2.6199 3.4558,2.9209" id="Fill-4"></path>
                        <path d="M17.6318,2.9209 C17.6318,3.2219 17.3878,3.4659 17.0868,3.4659 C16.7848,3.4659 16.5408,3.2219 16.5408,2.9209 C16.5408,2.6199 16.7848,2.3759 17.0868,2.3759 C17.3878,2.3759 17.6318,2.6199 17.6318,2.9209" id="Fill-6"></path>
                        <path d="M15.2691,2.9209 C15.2691,3.2219 15.0251,3.4659 14.7241,3.4659 C14.4221,3.4659 14.1781,3.2219 14.1781,2.9209 C14.1781,2.6199 14.4221,2.3759 14.7241,2.3759 C15.0251,2.3759 15.2691,2.6199 15.2691,2.9209" id="Fill-8"></path>
                        <path d="M12.9065,2.9209 C12.9065,3.2219 12.6625,3.4659 12.3615,3.4659 C12.0595,3.4659 11.8155,3.2219 11.8155,2.9209 C11.8155,2.6199 12.0595,2.3759 12.3615,2.3759 C12.6625,2.3759 12.9065,2.6199 12.9065,2.9209" id="Fill-10"></path>
                        <path d="M10.5438,2.9209 C10.5438,3.2219 10.2998,3.4659 9.9988,3.4659 C9.6968,3.4659 9.4528,3.2219 9.4528,2.9209 C9.4528,2.6199 9.6968,2.3759 9.9988,2.3759 C10.2998,2.3759 10.5438,2.6199 10.5438,2.9209" id="Fill-12"></path>
                        <path d="M8.1811,2.9209 C8.1811,3.2219 7.9371,3.4659 7.6361,3.4659 C7.3341,3.4659 7.0901,3.2219 7.0901,2.9209 C7.0901,2.6199 7.3341,2.3759 7.6361,2.3759 C7.9371,2.3759 8.1811,2.6199 8.1811,2.9209" id="Fill-14"></path>
                        <path d="M5.8185,2.9209 C5.8185,3.2219 5.5745,3.4659 5.2735,3.4659 C4.9715,3.4659 4.7275,3.2219 4.7275,2.9209 C4.7275,2.6199 4.9715,2.3759 5.2735,2.3759 C5.5745,2.3759 5.8185,2.6199 5.8185,2.9209" id="Fill-16"></path>
                        <path d="M3.4558,5.2798 C3.4558,5.5808 3.2118,5.8248 2.9108,5.8248 C2.6088,5.8248 2.3648,5.5808 2.3648,5.2798 C2.3648,4.9788 2.6088,4.7348 2.9108,4.7348 C3.2118,4.7348 3.4558,4.9788 3.4558,5.2798" id="Fill-18"></path>
                        <path d="M17.6318,5.2798 C17.6318,5.5808 17.3878,5.8248 17.0868,5.8248 C16.7848,5.8248 16.5408,5.5808 16.5408,5.2798 C16.5408,4.9788 16.7848,4.7348 17.0868,4.7348 C17.3878,4.7348 17.6318,4.9788 17.6318,5.2798" id="Fill-20"></path>
                        <path d="M15.2691,5.2798 C15.2691,5.5808 15.0251,5.8248 14.7241,5.8248 C14.4221,5.8248 14.1781,5.5808 14.1781,5.2798 C14.1781,4.9788 14.4221,4.7348 14.7241,4.7348 C15.0251,4.7348 15.2691,4.9788 15.2691,5.2798" id="Fill-22"></path>
                        <path d="M12.9065,5.2798 C12.9065,5.5808 12.6625,5.8248 12.3615,5.8248 C12.0595,5.8248 11.8155,5.5808 11.8155,5.2798 C11.8155,4.9788 12.0595,4.7348 12.3615,4.7348 C12.6625,4.7348 12.9065,4.9788 12.9065,5.2798" id="Fill-24"></path>
                        <path d="M10.5438,5.2798 C10.5438,5.5808 10.2998,5.8248 9.9988,5.8248 C9.6968,5.8248 9.4528,5.5808 9.4528,5.2798 C9.4528,4.9788 9.6968,4.7348 9.9988,4.7348 C10.2998,4.7348 10.5438,4.9788 10.5438,5.2798" id="Fill-26"></path>
                        <path d="M8.1811,5.2798 C8.1811,5.5808 7.9371,5.8248 7.6361,5.8248 C7.3341,5.8248 7.0901,5.5808 7.0901,5.2798 C7.0901,4.9788 7.3341,4.7348 7.6361,4.7348 C7.9371,4.7348 8.1811,4.9788 8.1811,5.2798" id="Fill-28"></path>
                        <path d="M5.8185,5.2798 C5.8185,5.5808 5.5745,5.8248 5.2735,5.8248 C4.9715,5.8248 4.7275,5.5808 4.7275,5.2798 C4.7275,4.9788 4.9715,4.7348 5.2735,4.7348 C5.5745,4.7348 5.8185,4.9788 5.8185,5.2798" id="Fill-30"></path>
                        <path d="M3.4558,7.6387 C3.4558,7.9397 3.2118,8.1837 2.9108,8.1837 C2.6088,8.1837 2.3648,7.9397 2.3648,7.6387 C2.3648,7.3377 2.6088,7.0937 2.9108,7.0937 C3.2118,7.0937 3.4558,7.3377 3.4558,7.6387" id="Fill-32"></path>
                        <path d="M17.6318,7.6387 C17.6318,7.9397 17.3878,8.1837 17.0868,8.1837 C16.7848,8.1837 16.5408,7.9397 16.5408,7.6387 C16.5408,7.3377 16.7848,7.0937 17.0868,7.0937 C17.3878,7.0937 17.6318,7.3377 17.6318,7.6387" id="Fill-34"></path>
                        <path d="M15.2691,7.6387 C15.2691,7.9397 15.0251,8.1837 14.7241,8.1837 C14.4221,8.1837 14.1781,7.9397 14.1781,7.6387 C14.1781,7.3377 14.4221,7.0937 14.7241,7.0937 C15.0251,7.0937 15.2691,7.3377 15.2691,7.6387" id="Fill-36"></path>
                        <path d="M5.8185,7.6387 C5.8185,7.9397 5.5745,8.1837 5.2735,8.1837 C4.9715,8.1837 4.7275,7.9397 4.7275,7.6387 C4.7275,7.3377 4.9715,7.0937 5.2735,7.0937 C5.5745,7.0937 5.8185,7.3377 5.8185,7.6387" id="Fill-38"></path>
                        <path d="M3.4558,9.9975 C3.4558,10.2985 3.2118,10.5425 2.9108,10.5425 C2.6088,10.5425 2.3648,10.2985 2.3648,9.9975 C2.3648,9.6965 2.6088,9.4525 2.9108,9.4525 C3.2118,9.4525 3.4558,9.6965 3.4558,9.9975" id="Fill-40"></path>
                        <path d="M17.6318,9.9975 C17.6318,10.2985 17.3878,10.5425 17.0868,10.5425 C16.7848,10.5425 16.5408,10.2985 16.5408,9.9975 C16.5408,9.6965 16.7848,9.4525 17.0868,9.4525 C17.3878,9.4525 17.6318,9.6965 17.6318,9.9975" id="Fill-42"></path>
                        <path d="M15.2691,9.9975 C15.2691,10.2985 15.0251,10.5425 14.7241,10.5425 C14.4221,10.5425 14.1781,10.2985 14.1781,9.9975 C14.1781,9.6965 14.4221,9.4525 14.7241,9.4525 C15.0251,9.4525 15.2691,9.6965 15.2691,9.9975" id="Fill-44"></path>
                        <path d="M5.8185,9.9975 C5.8185,10.2985 5.5745,10.5425 5.2735,10.5425 C4.9715,10.5425 4.7275,10.2985 4.7275,9.9975 C4.7275,9.6965 4.9715,9.4525 5.2735,9.4525 C5.5745,9.4525 5.8185,9.6965 5.8185,9.9975" id="Fill-46"></path>
                        <path d="M3.4558,12.3564 C3.4558,12.6574 3.2118,12.9014 2.9108,12.9014 C2.6088,12.9014 2.3648,12.6574 2.3648,12.3564 C2.3648,12.0554 2.6088,11.8114 2.9108,11.8114 C3.2118,11.8114 3.4558,12.0554 3.4558,12.3564" id="Fill-48"></path>
                        <path d="M17.6318,12.3564 C17.6318,12.6574 17.3878,12.9014 17.0868,12.9014 C16.7848,12.9014 16.5408,12.6574 16.5408,12.3564 C16.5408,12.0554 16.7848,11.8114 17.0868,11.8114 C17.3878,11.8114 17.6318,12.0554 17.6318,12.3564" id="Fill-50"></path>
                        <path d="M15.2691,12.3564 C15.2691,12.6574 15.0251,12.9014 14.7241,12.9014 C14.4221,12.9014 14.1781,12.6574 14.1781,12.3564 C14.1781,12.0554 14.4221,11.8114 14.7241,11.8114 C15.0251,11.8114 15.2691,12.0554 15.2691,12.3564" id="Fill-52"></path>
                        <path d="M5.8185,12.3564 C5.8185,12.6574 5.5745,12.9014 5.2735,12.9014 C4.9715,12.9014 4.7275,12.6574 4.7275,12.3564 C4.7275,12.0554 4.9715,11.8114 5.2735,11.8114 C5.5745,11.8114 5.8185,12.0554 5.8185,12.3564" id="Fill-54"></path>
                        <path d="M3.4558,14.7153 C3.4558,15.0163 3.2118,15.2603 2.9108,15.2603 C2.6088,15.2603 2.3648,15.0163 2.3648,14.7153 C2.3648,14.4143 2.6088,14.1703 2.9108,14.1703 C3.2118,14.1703 3.4558,14.4143 3.4558,14.7153" id="Fill-56"></path>
                        <path d="M17.6318,14.7153 C17.6318,15.0163 17.3878,15.2603 17.0868,15.2603 C16.7848,15.2603 16.5408,15.0163 16.5408,14.7153 C16.5408,14.4143 16.7848,14.1703 17.0868,14.1703 C17.3878,14.1703 17.6318,14.4143 17.6318,14.7153" id="Fill-58"></path>
                        <path d="M15.2691,14.7153 C15.2691,15.0163 15.0251,15.2603 14.7241,15.2603 C14.4221,15.2603 14.1781,15.0163 14.1781,14.7153 C14.1781,14.4143 14.4221,14.1703 14.7241,14.1703 C15.0251,14.1703 15.2691,14.4143 15.2691,14.7153" id="Fill-60"></path>
                        <path d="M12.9065,14.7153 C12.9065,15.0163 12.6625,15.2603 12.3615,15.2603 C12.0595,15.2603 11.8155,15.0163 11.8155,14.7153 C11.8155,14.4143 12.0595,14.1703 12.3615,14.1703 C12.6625,14.1703 12.9065,14.4143 12.9065,14.7153" id="Fill-62"></path>
                        <path d="M10.5438,14.7153 C10.5438,15.0163 10.2998,15.2603 9.9988,15.2603 C9.6968,15.2603 9.4528,15.0163 9.4528,14.7153 C9.4528,14.4143 9.6968,14.1703 9.9988,14.1703 C10.2998,14.1703 10.5438,14.4143 10.5438,14.7153" id="Fill-64"></path>
                        <path d="M8.1811,14.7153 C8.1811,15.0163 7.9371,15.2603 7.6361,15.2603 C7.3341,15.2603 7.0901,15.0163 7.0901,14.7153 C7.0901,14.4143 7.3341,14.1703 7.6361,14.1703 C7.9371,14.1703 8.1811,14.4143 8.1811,14.7153" id="Fill-66"></path>
                        <path d="M5.8185,14.7153 C5.8185,15.0163 5.5745,15.2603 5.2735,15.2603 C4.9715,15.2603 4.7275,15.0163 4.7275,14.7153 C4.7275,14.4143 4.9715,14.1703 5.2735,14.1703 C5.5745,14.1703 5.8185,14.4143 5.8185,14.7153" id="Fill-68"></path>
                        <path d="M3.4558,17.0741 C3.4558,17.3751 3.2118,17.6191 2.9108,17.6191 C2.6088,17.6191 2.3648,17.3751 2.3648,17.0741 C2.3648,16.7731 2.6088,16.5291 2.9108,16.5291 C3.2118,16.5291 3.4558,16.7731 3.4558,17.0741" id="Fill-70"></path>
                        <path d="M17.6318,17.0741 C17.6318,17.3751 17.3878,17.6191 17.0868,17.6191 C16.7848,17.6191 16.5408,17.3751 16.5408,17.0741 C16.5408,16.7731 16.7848,16.5291 17.0868,16.5291 C17.3878,16.5291 17.6318,16.7731 17.6318,17.0741" id="Fill-72"></path>
                        <path d="M15.2691,17.0741 C15.2691,17.3751 15.0251,17.6191 14.7241,17.6191 C14.4221,17.6191 14.1781,17.3751 14.1781,17.0741 C14.1781,16.7731 14.4221,16.5291 14.7241,16.5291 C15.0251,16.5291 15.2691,16.7731 15.2691,17.0741" id="Fill-74"></path>
                        <path d="M12.9065,17.0741 C12.9065,17.3751 12.6625,17.6191 12.3615,17.6191 C12.0595,17.6191 11.8155,17.3751 11.8155,17.0741 C11.8155,16.7731 12.0595,16.5291 12.3615,16.5291 C12.6625,16.5291 12.9065,16.7731 12.9065,17.0741" id="Fill-76"></path>
                        <path d="M10.5438,17.0741 C10.5438,17.3751 10.2998,17.6191 9.9988,17.6191 C9.6968,17.6191 9.4528,17.3751 9.4528,17.0741 C9.4528,16.7731 9.6968,16.5291 9.9988,16.5291 C10.2998,16.5291 10.5438,16.7731 10.5438,17.0741" id="Fill-78"></path>
                        <path d="M8.1811,17.0741 C8.1811,17.3751 7.9371,17.6191 7.6361,17.6191 C7.3341,17.6191 7.0901,17.3751 7.0901,17.0741 C7.0901,16.7731 7.3341,16.5291 7.6361,16.5291 C7.9371,16.5291 8.1811,16.7731 8.1811,17.0741" id="Fill-80"></path>
                        <path d="M5.8185,17.0741 C5.8185,17.3751 5.5745,17.6191 5.2735,17.6191 C4.9715,17.6191 4.7275,17.3751 4.7275,17.0741 C4.7275,16.7731 4.9715,16.5291 5.2735,16.5291 C5.5745,16.5291 5.8185,16.7731 5.8185,17.0741" id="Fill-82"></path>
                        <path d="M11.7264,8.8206 C11.7264,9.1216 11.4824,9.3656 11.1814,9.3656 C10.8794,9.3656 10.6354,9.1216 10.6354,8.8206 C10.6354,8.5196 10.8794,8.2756 11.1814,8.2756 C11.4824,8.2756 11.7264,8.5196 11.7264,8.8206" id="Fill-84"></path>
                        <path d="M9.3637,8.8206 C9.3637,9.1216 9.1197,9.3656 8.8187,9.3656 C8.5167,9.3656 8.2727,9.1216 8.2727,8.8206 C8.2727,8.5196 8.5167,8.2756 8.8187,8.2756 C9.1197,8.2756 9.3637,8.5196 9.3637,8.8206" id="Fill-86"></path>
                        <path d="M11.7264,11.1794 C11.7264,11.4804 11.4824,11.7244 11.1814,11.7244 C10.8794,11.7244 10.6354,11.4804 10.6354,11.1794 C10.6354,10.8784 10.8794,10.6344 11.1814,10.6344 C11.4824,10.6344 11.7264,10.8784 11.7264,11.1794" id="Fill-88"></path>
                        <path d="M9.3637,11.1794 C9.3637,11.4804 9.1197,11.7244 8.8187,11.7244 C8.5167,11.7244 8.2727,11.4804 8.2727,11.1794 C8.2727,10.8784 8.5167,10.6344 8.8187,10.6344 C9.1197,10.6344 9.3637,10.8784 9.3637,11.1794" id="Fill-90"></path>
                    </g>
                </g>
                <rect id="Rectangle" fill="#FFFFFF" opacity="0" x="0" y="0" width="28" height="28"></rect>
            </g>
        </g>
    </g>
</svg>