<?xml version="1.0" encoding="UTF-8"?>
<svg width="28px" height="28px" viewBox="0 0 28 28" version="1.1" xmlns="http://www.w3.org/2000/svg" xmlns:xlink="http://www.w3.org/1999/xlink">
    <title>Icon-GNB-AdvancedPackage</title>
    <g id="Page-1" stroke="none" stroke-width="1" fill="none" fill-rule="evenodd">
        <g id="Icon-GNB" transform="translate(-312.000000, -361.000000)">
            <g id="Icon-GNB-AdvancedPackage" transform="translate(312.000000, 361.000000)">
                <rect id="Rectangle" fill="#FFFFFF" opacity="0" x="0" y="0" width="28" height="28"></rect>
                <g id="Group">
                    <polygon id="Fill-1" points="0 28 28 28 28 0 0 0"></polygon>
                    <g id="Group-20" transform="translate(3.947000, 4.334300)">
                        <polyline id="Stroke-2" stroke="#FEFEFE" stroke-linecap="round" stroke-linejoin="round" points="14.6305 7.1367 20.2435 9.6187 10.1095 14.2027 0.0005 9.6187 5.5315 7.1667"></polyline>
                        <polygon id="Fill-3" fill="#FEFEFE" points="9.427 17.642 10.216 17.978 11.004 17.64 10.215 17.308"></polygon>
                        <polygon id="Fill-4" fill="#FEFEFE" points="7.9528 16.9958 8.7468 17.3338 9.5388 16.9958 8.7458 16.6618"></polygon>
                        <polygon id="Fill-5" fill="#FEFEFE" points="6.4696 16.3451 7.2676 16.6851 8.0656 16.3481 7.2666 16.0121"></polygon>
                        <polygon id="Fill-6" fill="#FEFEFE" points="4.9765 15.6908 5.7805 16.0338 6.5825 15.6958 5.7795 15.3578"></polygon>
                        <polygon id="Fill-7" fill="#FEFEFE" points="3.4744 15.0329 4.2824 15.3779 5.0894 15.0399 4.2814 14.6999"></polygon>
                        <polygon id="Fill-8" fill="#FEFEFE" points="10.8922 16.9967 11.6782 17.3327 12.4582 16.9967 11.6772 16.6657"></polygon>
                        <polygon id="Fill-9" fill="#FEFEFE" points="12.3475 16.355 13.1285 16.692 13.9045 16.358 13.1275 16.026"></polygon>
                        <polygon id="Fill-10" fill="#FEFEFE" points="13.7947 15.7178 14.5707 16.0548 15.3417 15.7228 14.5707 15.3908"></polygon>
                        <polygon id="Fill-11" fill="#FEFEFE" points="4.9756 14.3192 5.7796 14.6642 6.5816 14.3292 5.7786 13.9892"></polygon>
                        <polygon id="Fill-12" fill="#FEFEFE" points="13.7938 14.3714 14.5698 14.7094 15.3408 14.3804 14.5698 14.0464"></polygon>
                        <polygon id="Fill-13" fill="#FEFEFE" points="15.2329 15.0851 16.0039 15.4211 16.7699 15.0911 16.0029 14.7591"></polygon>
                        <polyline id="Stroke-14" stroke="#FEFEFE" stroke-linecap="round" stroke-linejoin="round" points="14.3631 12.2811 20.2441 14.8811 10.1091 19.4651 9.99999997e-05 14.8811 5.6441 12.3791"></polyline>
                        <polygon id="Stroke-15" stroke="#FEFEFE" stroke-linecap="round" stroke-linejoin="round" points="20.244 4.481 10.11 9.064 0 4.481 10.11 0"></polygon>
                        <line x1="4.1304" y1="4.7291" x2="10.6744" y2="1.8511" id="Stroke-16" stroke="#FEFEFE" stroke-width="0.75" stroke-linecap="round" stroke-linejoin="round"></line>
                        <line x1="5.9437" y1="5.5569" x2="12.4877" y2="2.6789" id="Stroke-17" stroke="#FEFEFE" stroke-width="0.75" stroke-linecap="round" stroke-linejoin="round"></line>
                        <line x1="7.7571" y1="6.3847" x2="14.3011" y2="3.5067" id="Stroke-18" stroke="#FEFEFE" stroke-width="0.75" stroke-linecap="round" stroke-linejoin="round"></line>
                        <line x1="9.5704" y1="7.2125" x2="16.1144" y2="4.3345" id="Stroke-19" stroke="#FEFEFE" stroke-width="0.75" stroke-linecap="round" stroke-linejoin="round"></line>
                    </g>
                </g>
            </g>
        </g>
    </g>
</svg>