<?xml version="1.0" encoding="UTF-8"?>
<svg width="28px" height="28px" viewBox="0 0 28 28" version="1.1" xmlns="http://www.w3.org/2000/svg" xmlns:xlink="http://www.w3.org/1999/xlink">
    <title>icon-gnb-dram</title>
    <g id="Page-1" stroke="none" stroke-width="1" fill="none" fill-rule="evenodd">
        <g id="Icon-GNB" transform="translate(-47.000000, -75.000000)">
            <g id="icon-gnb-dram" transform="translate(47.000000, 75.000000)">
                <rect id="Rectangle" fill="#FFFFFF" opacity="0" x="0" y="0" width="28" height="28"></rect>
                <g id="Group">
                    <polygon id="Fill-1" points="0 28 28 28 28 0 0 0"></polygon>
                    <rect id="Rectangle" fill="#000000" opacity="0" x="0" y="0" width="28" height="28"></rect>
                    <g id="icon" transform="translate(1.999800, 7.500000)" fill="#FFFFFF">
                        <path d="M22.584,0 L1.416,0 C0.634,0 0,0.634 0,1.416 L0,11.584 C0,12.366 0.634,13 1.416,13 L10,13 C10.414,13 10.75,12.664 10.75,12.249 L10.75,11.178 C10.75,11.14 10.781,11.109 10.819,11.109 L13.181,11.109 C13.219,11.109 13.25,11.14 13.25,11.178 L13.25,12.249 C13.25,12.664 13.586,13 14.001,13 L22.584,13 C23.366,13 24,12.366 24,11.584 L24,1.416 C24,0.634 23.366,0 22.584,0 M22.584,1 C22.813,1 23,1.187 23,1.416 L23,11.584 C23,11.813 22.813,12 22.584,12 L14.25,12 L14.25,11.178 C14.25,10.589 13.771,10.109 13.181,10.109 L10.819,10.109 C10.23,10.109 9.75,10.589 9.75,11.178 L9.75,12 L1.416,12 C1.187,12 1,11.813 1,11.584 L1,1.416 C1,1.187 1.187,1 1.416,1 L22.584,1" id="Fill-2"></path>
                        <path d="M5.4603,1.9542 L2.8653,1.9542 C2.4773,1.9542 2.1633,2.2692 2.1633,2.6572 L2.1633,8.2512 C2.1633,8.6392 2.4773,8.9542 2.8653,8.9542 L5.4603,8.9542 C5.8483,8.9542 6.1633,8.6392 6.1633,8.2512 L6.1633,2.6572 C6.1633,2.2692 5.8483,1.9542 5.4603,1.9542 L5.4603,1.9542 Z M2.9133,8.2042 L5.4133,8.2042 L5.4133,2.7042 L2.9133,2.7042 L2.9133,8.2042 Z" id="Fill-4"></path>
                        <path d="M10.6852,1.9542 L8.0902,1.9542 C7.7022,1.9542 7.3882,2.2692 7.3882,2.6572 L7.3882,8.2512 C7.3882,8.6392 7.7022,8.9542 8.0902,8.9542 L10.6852,8.9542 C11.0732,8.9542 11.3882,8.6392 11.3882,8.2512 L11.3882,2.6572 C11.3882,2.2692 11.0732,1.9542 10.6852,1.9542 L10.6852,1.9542 Z M8.1382,8.2042 L10.6382,8.2042 L10.6382,2.7042 L8.1382,2.7042 L8.1382,8.2042 Z" id="Fill-6"></path>
                        <path d="M15.9101,1.9542 L13.3151,1.9542 C12.9271,1.9542 12.6131,2.2692 12.6131,2.6572 L12.6131,8.2512 C12.6131,8.6392 12.9271,8.9542 13.3151,8.9542 L15.9101,8.9542 C16.2981,8.9542 16.6131,8.6392 16.6131,8.2512 L16.6131,2.6572 C16.6131,2.2692 16.2981,1.9542 15.9101,1.9542 L15.9101,1.9542 Z M13.3631,8.2042 L15.8631,8.2042 L15.8631,2.7042 L13.3631,2.7042 L13.3631,8.2042 Z" id="Fill-8"></path>
                        <path d="M21.1351,1.9542 L18.5401,1.9542 C18.1521,1.9542 17.8381,2.2692 17.8381,2.6572 L17.8381,8.2512 C17.8381,8.6392 18.1521,8.9542 18.5401,8.9542 L21.1351,8.9542 C21.5231,8.9542 21.8381,8.6392 21.8381,8.2512 L21.8381,2.6572 C21.8381,2.2692 21.5231,1.9542 21.1351,1.9542 L21.1351,1.9542 Z M18.5881,8.2042 L21.0881,8.2042 L21.0881,2.7042 L18.5881,2.7042 L18.5881,8.2042 Z" id="Fill-10"></path>
                    </g>
                </g>
            </g>
        </g>
    </g>
</svg>