<?xml version="1.0" encoding="UTF-8"?>
<svg width="28px" height="28px" viewBox="0 0 28 28" version="1.1" xmlns="http://www.w3.org/2000/svg" xmlns:xlink="http://www.w3.org/1999/xlink">
    <title>Icon-GNB-Processor</title>
    <g id="Page-1" stroke="none" stroke-width="1" fill="none" fill-rule="evenodd">
        <g id="Icon-GNB" transform="translate(-46.000000, -149.000000)">
            <g id="Icon-GNB-Processor" transform="translate(46.000000, 149.000000)">
                <rect id="Rectangle" fill="#FFFFFF" opacity="0" x="0" y="0" width="28" height="28"></rect>
                <g id="Group">
                    <polygon id="Fill-1" points="0 28 28 28 28 0 0 0"></polygon>
                    <g id="icon">
                        <path d="M22.6364,4 L5.3634,4 C4.6104,4 4.0004,4.611 4.0004,5.364 L4.0004,22.636 C4.0004,23.389 4.6104,24 5.3634,24 L22.6364,24 C23.3894,24 24.0004,23.389 24.0004,22.636 L24.0004,5.364 C24.0004,4.611 23.3894,4 22.6364,4 M22.6364,4.909 C22.8874,4.909 23.0914,5.113 23.0914,5.364 L23.0914,22.636 C23.0914,22.887 22.8874,23.091 22.6364,23.091 L5.3634,23.091 C5.1134,23.091 4.9094,22.887 4.9094,22.636 L4.9094,5.364 C4.9094,5.113 5.1134,4.909 5.3634,4.909 L22.6364,4.909" id="Fill-2" fill="#FFFFFF"></path>
                        <polygon id="Clip-5" points="0 28 28 28 28 0 0 0"></polygon>
                        <g id="Group-3" transform="translate(6.500000, 6.500000)" fill="#FFFFFF">
                            <path d="M1.07191983,0.536304713 C1.07191983,0.832502362 0.83218707,1.07260943 0.536451169,1.07260943 C0.239732757,1.07260943 0,0.832502362 0,0.536304713 C0,0.240107064 0.239732757,0 0.536451169,0 C0.83218707,0 1.07191983,0.240107064 1.07191983,0.536304713 M15,0.536304713 C15,0.832502362 14.7602672,1.07260943 14.4645313,1.07260943 C14.1678129,1.07260943 13.9280802,0.832502362 13.9280802,0.536304713 C13.9280802,0.240107064 14.1678129,0 14.4645313,0 C14.7602672,0 15,0.240107064 15,0.536304713 M12.6786206,0.536304713 C12.6786206,0.832502362 12.4388878,1.07260943 12.1431519,1.07260943 C11.8464335,1.07260943 11.6067007,0.832502362 11.6067007,0.536304713 C11.6067007,0.240107064 11.8464335,0 12.1431519,0 C12.4388878,0 12.6786206,0.240107064 12.6786206,0.536304713 M10.3573394,0.536304713 C10.3573394,0.832502362 10.1176066,1.07260943 9.8218707,1.07260943 C9.52515229,1.07260943 9.28541953,0.832502362 9.28541953,0.536304713 C9.28541953,0.240107064 9.52515229,0 9.8218707,0 C10.1176066,0 10.3573394,0.240107064 10.3573394,0.536304713 M8.03595991,0.536304713 C8.03595991,0.832502362 7.79622716,1.07260943 7.50049126,1.07260943 C7.20377284,1.07260943 6.96404009,0.832502362 6.96404009,0.536304713 C6.96404009,0.240107064 7.20377284,0 7.50049126,0 C7.79622716,0 8.03595991,0.240107064 8.03595991,0.536304713 M5.71458047,0.536304713 C5.71458047,0.832502362 5.47484771,1.07260943 5.17911181,1.07260943 C4.8823934,1.07260943 4.64266064,0.832502362 4.64266064,0.536304713 C4.64266064,0.240107064 4.8823934,0 5.17911181,0 C5.47484771,0 5.71458047,0.240107064 5.71458047,0.536304713 M3.39329927,0.536304713 C3.39329927,0.832502362 3.15356652,1.07260943 2.85783062,1.07260943 C2.5611122,1.07260943 2.32137945,0.832502362 2.32137945,0.536304713 C2.32137945,0.240107064 2.5611122,0 2.85783062,0 C3.15356652,0 3.39329927,0.240107064 3.39329927,0.536304713 M1.07191983,2.85756928 C1.07191983,3.15376693 0.83218707,3.39387399 0.536451169,3.39387399 C0.239732757,3.39387399 0,3.15376693 0,2.85756928 C0,2.56137163 0.239732757,2.32126456 0.536451169,2.32126456 C0.83218707,2.32126456 1.07191983,2.56137163 1.07191983,2.85756928 M15,2.85756928 C15,3.15376693 14.7602672,3.39387399 14.4645313,3.39387399 C14.1678129,3.39387399 13.9280802,3.15376693 13.9280802,2.85756928 C13.9280802,2.56137163 14.1678129,2.32126456 14.4645313,2.32126456 C14.7602672,2.32126456 15,2.56137163 15,2.85756928 M12.6786206,2.85756928 C12.6786206,3.15376693 12.4388878,3.39387399 12.1431519,3.39387399 C11.8464335,3.39387399 11.6067007,3.15376693 11.6067007,2.85756928 C11.6067007,2.56137163 11.8464335,2.32126456 12.1431519,2.32126456 C12.4388878,2.32126456 12.6786206,2.56137163 12.6786206,2.85756928 M10.3573394,2.85756928 C10.3573394,3.15376693 10.1176066,3.39387399 9.8218707,3.39387399 C9.52515229,3.39387399 9.28541953,3.15376693 9.28541953,2.85756928 C9.28541953,2.56137163 9.52515229,2.32126456 9.8218707,2.32126456 C10.1176066,2.32126456 10.3573394,2.56137163 10.3573394,2.85756928 M8.03595991,2.85756928 C8.03595991,3.15376693 7.79622716,3.39387399 7.50049126,3.39387399 C7.20377284,3.39387399 6.96404009,3.15376693 6.96404009,2.85756928 C6.96404009,2.56137163 7.20377284,2.32126456 7.50049126,2.32126456 C7.79622716,2.32126456 8.03595991,2.56137163 8.03595991,2.85756928 M5.71458047,2.85756928 C5.71458047,3.15376693 5.47484771,3.39387399 5.17911181,3.39387399 C4.8823934,3.39387399 4.64266064,3.15376693 4.64266064,2.85756928 C4.64266064,2.56137163 4.8823934,2.32126456 5.17911181,2.32126456 C5.47484771,2.32126456 5.71458047,2.56137163 5.71458047,2.85756928 M3.39329927,2.85756928 C3.39329927,3.15376693 3.15356652,3.39387399 2.85783062,3.39387399 C2.5611122,3.39387399 2.32137945,3.15376693 2.32137945,2.85756928 C2.32137945,2.56137163 2.5611122,2.32126456 2.85783062,2.32126456 C3.15356652,2.32126456 3.39329927,2.56137163 3.39329927,2.85756928 M1.07191983,5.17883384 C1.07191983,5.47503149 0.83218707,5.71513855 0.536451169,5.71513855 C0.239732757,5.71513855 0,5.47503149 0,5.17883384 C0,4.88263619 0.239732757,4.64252913 0.536451169,4.64252913 C0.83218707,4.64252913 1.07191983,4.88263619 1.07191983,5.17883384 M15,5.17883384 C15,5.47503149 14.7602672,5.71513855 14.4645313,5.71513855 C14.1678129,5.71513855 13.9280802,5.47503149 13.9280802,5.17883384 C13.9280802,4.88263619 14.1678129,4.64252913 14.4645313,4.64252913 C14.7602672,4.64252913 15,4.88263619 15,5.17883384 M12.6786206,5.17883384 C12.6786206,5.47503149 12.4388878,5.71513855 12.1431519,5.71513855 C11.8464335,5.71513855 11.6067007,5.47503149 11.6067007,5.17883384 C11.6067007,4.88263619 11.8464335,4.64252913 12.1431519,4.64252913 C12.4388878,4.64252913 12.6786206,4.88263619 12.6786206,5.17883384 M3.39329927,5.17883384 C3.39329927,5.47503149 3.15356652,5.71513855 2.85783062,5.71513855 C2.5611122,5.71513855 2.32137945,5.47503149 2.32137945,5.17883384 C2.32137945,4.88263619 2.5611122,4.64252913 2.85783062,4.64252913 C3.15356652,4.64252913 3.39329927,4.88263619 3.39329927,5.17883384 M1.07191983,7.5 C1.07191983,7.79619765 0.83218707,8.03630471 0.536451169,8.03630471 C0.239732757,8.03630471 0,7.79619765 0,7.5 C0,7.20380235 0.239732757,6.96369529 0.536451169,6.96369529 C0.83218707,6.96369529 1.07191983,7.20380235 1.07191983,7.5 M15,7.5 C15,7.79619765 14.7602672,8.03630471 14.4645313,8.03630471 C14.1678129,8.03630471 13.9280802,7.79619765 13.9280802,7.5 C13.9280802,7.20380235 14.1678129,6.96369529 14.4645313,6.96369529 C14.7602672,6.96369529 15,7.20380235 15,7.5 M12.6786206,7.5 C12.6786206,7.79619765 12.4388878,8.03630471 12.1431519,8.03630471 C11.8464335,8.03630471 11.6067007,7.79619765 11.6067007,7.5 C11.6067007,7.20380235 11.8464335,6.96369529 12.1431519,6.96369529 C12.4388878,6.96369529 12.6786206,7.20380235 12.6786206,7.5 M3.39329927,7.5 C3.39329927,7.79619765 3.15356652,8.03630471 2.85783062,8.03630471 C2.5611122,8.03630471 2.32137945,7.79619765 2.32137945,7.5 C2.32137945,7.20380235 2.5611122,6.96369529 2.85783062,6.96369529 C3.15356652,6.96369529 3.39329927,7.20380235 3.39329927,7.5 M1.07191983,9.82126456 C1.07191983,10.1174622 0.83218707,10.3575693 0.536451169,10.3575693 C0.239732757,10.3575693 0,10.1174622 0,9.82126456 C0,9.52506692 0.239732757,9.28495985 0.536451169,9.28495985 C0.83218707,9.28495985 1.07191983,9.52506692 1.07191983,9.82126456 M15,9.82126456 C15,10.1174622 14.7602672,10.3575693 14.4645313,10.3575693 C14.1678129,10.3575693 13.9280802,10.1174622 13.9280802,9.82126456 C13.9280802,9.52506692 14.1678129,9.28495985 14.4645313,9.28495985 C14.7602672,9.28495985 15,9.52506692 15,9.82126456 M12.6786206,9.82126456 C12.6786206,10.1174622 12.4388878,10.3575693 12.1431519,10.3575693 C11.8464335,10.3575693 11.6067007,10.1174622 11.6067007,9.82126456 C11.6067007,9.52506692 11.8464335,9.28495985 12.1431519,9.28495985 C12.4388878,9.28495985 12.6786206,9.52506692 12.6786206,9.82126456 M3.39329927,9.82126456 C3.39329927,10.1174622 3.15356652,10.3575693 2.85783062,10.3575693 C2.5611122,10.3575693 2.32137945,10.1174622 2.32137945,9.82126456 C2.32137945,9.52506692 2.5611122,9.28495985 2.85783062,9.28495985 C3.15356652,9.28495985 3.39329927,9.52506692 3.39329927,9.82126456 M1.07191983,12.1425291 C1.07191983,12.4387268 0.83218707,12.6788338 0.536451169,12.6788338 C0.239732757,12.6788338 0,12.4387268 0,12.1425291 C0,11.8463315 0.239732757,11.6062244 0.536451169,11.6062244 C0.83218707,11.6062244 1.07191983,11.8463315 1.07191983,12.1425291 M15,12.1425291 C15,12.4387268 14.7602672,12.6788338 14.4645313,12.6788338 C14.1678129,12.6788338 13.9280802,12.4387268 13.9280802,12.1425291 C13.9280802,11.8463315 14.1678129,11.6062244 14.4645313,11.6062244 C14.7602672,11.6062244 15,11.8463315 15,12.1425291 M12.6786206,12.1425291 C12.6786206,12.4387268 12.4388878,12.6788338 12.1431519,12.6788338 C11.8464335,12.6788338 11.6067007,12.4387268 11.6067007,12.1425291 C11.6067007,11.8463315 11.8464335,11.6062244 12.1431519,11.6062244 C12.4388878,11.6062244 12.6786206,11.8463315 12.6786206,12.1425291 M10.3573394,12.1425291 C10.3573394,12.4387268 10.1176066,12.6788338 9.8218707,12.6788338 C9.52515229,12.6788338 9.28541953,12.4387268 9.28541953,12.1425291 C9.28541953,11.8463315 9.52515229,11.6062244 9.8218707,11.6062244 C10.1176066,11.6062244 10.3573394,11.8463315 10.3573394,12.1425291 M8.03595991,12.1425291 C8.03595991,12.4387268 7.79622716,12.6788338 7.50049126,12.6788338 C7.20377284,12.6788338 6.96404009,12.4387268 6.96404009,12.1425291 C6.96404009,11.8463315 7.20377284,11.6062244 7.50049126,11.6062244 C7.79622716,11.6062244 8.03595991,11.8463315 8.03595991,12.1425291 M5.71458047,12.1425291 C5.71458047,12.4387268 5.47484771,12.6788338 5.17911181,12.6788338 C4.8823934,12.6788338 4.64266064,12.4387268 4.64266064,12.1425291 C4.64266064,11.8463315 4.8823934,11.6062244 5.17911181,11.6062244 C5.47484771,11.6062244 5.71458047,11.8463315 5.71458047,12.1425291 M3.39329927,12.1425291 C3.39329927,12.4387268 3.15356652,12.6788338 2.85783062,12.6788338 C2.5611122,12.6788338 2.32137945,12.4387268 2.32137945,12.1425291 C2.32137945,11.8463315 2.5611122,11.6062244 2.85783062,11.6062244 C3.15356652,11.6062244 3.39329927,11.8463315 3.39329927,12.1425291 M1.07191983,14.4636953 C1.07191983,14.7598929 0.83218707,15 0.536451169,15 C0.239732757,15 0,14.7598929 0,14.4636953 C0,14.1674976 0.239732757,13.9273906 0.536451169,13.9273906 C0.83218707,13.9273906 1.07191983,14.1674976 1.07191983,14.4636953 M15,14.4636953 C15,14.7598929 14.7602672,15 14.4645313,15 C14.1678129,15 13.9280802,14.7598929 13.9280802,14.4636953 C13.9280802,14.1674976 14.1678129,13.9273906 14.4645313,13.9273906 C14.7602672,13.9273906 15,14.1674976 15,14.4636953 M12.6786206,14.4636953 C12.6786206,14.7598929 12.4388878,15 12.1431519,15 C11.8464335,15 11.6067007,14.7598929 11.6067007,14.4636953 C11.6067007,14.1674976 11.8464335,13.9273906 12.1431519,13.9273906 C12.4388878,13.9273906 12.6786206,14.1674976 12.6786206,14.4636953 M10.3573394,14.4636953 C10.3573394,14.7598929 10.1176066,15 9.8218707,15 C9.52515229,15 9.28541953,14.7598929 9.28541953,14.4636953 C9.28541953,14.1674976 9.52515229,13.9273906 9.8218707,13.9273906 C10.1176066,13.9273906 10.3573394,14.1674976 10.3573394,14.4636953 M8.03595991,14.4636953 C8.03595991,14.7598929 7.79622716,15 7.50049126,15 C7.20377284,15 6.96404009,14.7598929 6.96404009,14.4636953 C6.96404009,14.1674976 7.20377284,13.9273906 7.50049126,13.9273906 C7.79622716,13.9273906 8.03595991,14.1674976 8.03595991,14.4636953 M5.71458047,14.4636953 C5.71458047,14.7598929 5.47484771,15 5.17911181,15 C4.8823934,15 4.64266064,14.7598929 4.64266064,14.4636953 C4.64266064,14.1674976 4.8823934,13.9273906 5.17911181,13.9273906 C5.47484771,13.9273906 5.71458047,14.1674976 5.71458047,14.4636953 M3.39329927,14.4636953 C3.39329927,14.7598929 3.15356652,15 2.85783062,15 C2.5611122,15 2.32137945,14.7598929 2.32137945,14.4636953 C2.32137945,14.1674976 2.5611122,13.9273906 2.85783062,13.9273906 C3.15356652,13.9273906 3.39329927,14.1674976 3.39329927,14.4636953" id="Combined-Shape"></path>
                        </g>
                    </g>
                </g>
            </g>
        </g>
    </g>
</svg>