<?xml version="1.0" encoding="UTF-8"?>
<svg width="28px" height="28px" viewBox="0 0 28 28" version="1.1" xmlns="http://www.w3.org/2000/svg" xmlns:xlink="http://www.w3.org/1999/xlink">
    <title>Icon-GNB-ConsumerStorageSuport</title>
    <g id="Page-1" stroke="none" stroke-width="1" fill="none" fill-rule="evenodd">
        <g id="Icon-GNB" transform="translate(-251.000000, -620.000000)">
            <g id="Icon-GNB-ConsumerStorageSuport" transform="translate(251.000000, 620.000000)">
                <rect id="Rectangle" fill="#FFFFFF" opacity="0" x="0" y="0" width="28" height="28"></rect>
                <rect id="Rectangle" fill="#FFFFFF" opacity="0" x="0" y="0" width="28" height="28"></rect>
                <g id="Group">
                    <polygon id="Fill-1" points="0 28 28 28 28 0 0 0"></polygon>
                    <g id="icon" transform="translate(2.000000, 2.000000)" fill="#FFFFFF">
                        <path d="M11.8812219,0 C14.4265079,0 17.430712,1.64418939 19.3155927,4.51308816 C19.9572571,5.48973894 20.5202723,7.2456727 21.0391656,9.81845722 L21.0909091,10.0784599 L19.833491,10.4 L19.7401209,9.9364003 C19.7244978,9.86078385 19.7088447,9.78599333 19.6931628,9.71203001 L19.5987353,9.2781865 C19.551358,9.06623803 19.5037426,8.86175706 19.4559204,8.66477776 L19.3600095,8.2808315 L19.263603,7.9169504 C19.2152851,7.74003626 19.1668022,7.57066932 19.1181858,7.40888374 L19.0207842,7.09543119 C18.7768815,6.33712159 18.5301629,5.76891522 18.2845523,5.3950814 C16.6479056,2.90400943 14.0284355,1.47038345 11.8812219,1.47038345 C9.97243962,1.47038345 7.07947265,3.12797 5.56126221,5.39987139 C5.0194774,6.2106165 4.55900217,7.79376024 4.2152448,10.1210725 L4.18125943,10.3562833 L2.90909091,10.1221766 L2.9841871,9.61444776 C3.35638421,7.20952546 3.86318366,5.51597564 4.5365696,4.50829817 C6.29690134,1.87407828 9.56770887,0 11.8812219,0 Z" id="Path-35" fill-rule="nonzero"></path>
                        <path d="M6.54545455,9.6 L2.50100933,9.6 L2.36103802,9.67999238 C0.812949234,10.5647116 0,11.8961152 0,13.6006271 C0,15.3052365 0.813056218,16.6363106 2.36129149,17.5201524 L2.5011614,17.6 L6.54545455,17.6 L6.54545455,9.6 Z M5.26717924,10.9834265 L5.26717924,16.2159048 L2.82259912,16.2159048 L2.728962,16.1577382 C1.74062239,15.5202981 1.27787774,14.6877533 1.27787774,13.6006271 L1.27978562,13.4808684 C1.31288303,12.4519744 1.77732515,11.656785 2.72918575,11.0422773 L2.82259912,10.9834265 L5.26717924,10.9834265 Z" id="Path-36" fill-rule="nonzero"></path>
                        <path d="M24,9.6 L19.9555548,9.6 L19.8155835,9.67999238 C18.2674947,10.5647116 17.4545455,11.8961152 17.4545455,13.6006271 C17.4545455,15.3052365 18.2676017,16.6363106 19.8158369,17.5201524 L19.9557069,17.6 L24,17.6 L24,9.6 Z M22.7217247,10.9834265 L22.7217247,16.2159048 L20.2771446,16.2159048 L20.1835075,16.1577382 C19.1951678,15.5202981 18.7324232,14.6877533 18.7324232,13.6006271 L18.7343311,13.4808684 C18.7674285,12.4519744 19.2318706,11.656785 20.1837312,11.0422773 L20.2771446,10.9834265 L22.7217247,10.9834265 Z" id="Path-36-Copy" fill-rule="nonzero" transform="translate(20.727273, 13.600000) scale(-1, 1) translate(-20.727273, -13.600000) "></path>
                        <path d="M19.850467,16.4647144 C19.9745805,16.094625 20.3437226,15.9070203 20.6749691,16.0456877 C21.0062156,16.1843551 21.17413,16.596784 21.0500166,16.9668735 C19.577849,21.356677 17.136673,23.7432671 13.7748214,23.9983277 C13.4218993,24.0251036 13.1163715,23.7271608 13.0924059,23.332854 C13.0684403,22.9385471 13.3351122,22.5971921 13.6880344,22.5704162 C16.50468,22.3567199 18.5427133,20.364258 19.850467,16.4647144 Z" id="Path-37" fill-rule="nonzero"></path>
                        <ellipse id="Oval" cx="13.4545455" cy="22" rx="1.81818182" ry="2"></ellipse>
                    </g>
                </g>
            </g>
        </g>
    </g>
</svg>