<?xml version="1.0" encoding="UTF-8"?>
<svg width="28px" height="28px" viewBox="0 0 28 28" version="1.1" xmlns="http://www.w3.org/2000/svg" xmlns:xlink="http://www.w3.org/1999/xlink">
    <title>Icon-GNB-Application</title>
    <g id="Page-1" stroke="none" stroke-width="1" fill="none" fill-rule="evenodd">
        <g id="Icon-GNB" transform="translate(-115.000000, -498.000000)">
            <g id="Icon-GNB-Application" transform="translate(115.000000, 498.000000)">
                <rect id="Rectangle" fill="#FFFFFF" opacity="0" x="0" y="0" width="28" height="28"></rect>
                <g id="Group">
                    <polygon id="Fill-1" points="0 28 28 28 28 0 0 0"></polygon>
                    <g id="Group-10" transform="translate(2.000000, 5.000000)">
                        <path d="M21,0 L3,0 C1.343,0 0,1.343 0,3 L0,15 C0,16.657 1.343,18 3,18 L21,18 C22.657,18 24,16.657 24,15 L24,3 C24,1.343 22.657,0 21,0 M21,1 C22.103,1 23,1.897 23,3 L23,15 C23,16.103 22.103,17 21,17 L3,17 C1.897,17 1,16.103 1,15 L1,3 C1,1.897 1.897,1 3,1 L21,1" id="Fill-2" fill="#FFFFFF"></path>
                        <path d="M16.8098,9.2348 L15.8948,9.0058 C15.8278,8.8238 15.7468,8.6508 15.6568,8.4818 L16.1088,7.7288 C16.1918,7.5908 16.1698,7.4148 16.0558,7.3008 L14.9898,6.2348 C14.8758,6.1208 14.6988,6.0988 14.5608,6.1818 L13.7558,6.6648 C13.5818,6.5838 13.3998,6.5218 13.2138,6.4648 L13.0008,5.6128 C12.9618,5.4568 12.8208,5.3468 12.6598,5.3468 L11.1528,5.3468 C10.9918,5.3468 10.8518,5.4568 10.8118,5.6128 L10.5838,6.5278 C10.4008,6.5948 10.2288,6.6758 10.0588,6.7658 L9.3068,6.3138 C9.1688,6.2308 8.9918,6.2528 8.8778,6.3668 L7.8118,7.4328 C7.6978,7.5468 7.6768,7.7238 7.7588,7.8618 L8.2428,8.6668 C8.1608,8.8408 8.0998,9.0228 8.0428,9.2088 L7.1908,9.4218 C7.0338,9.4608 6.9248,9.6018 6.9248,9.7628 L6.9248,11.2698 C6.9248,11.4308 7.0338,11.5718 7.1908,11.6108 L8.1058,11.8388 C8.1718,12.0218 8.2528,12.1938 8.3428,12.3638 L7.8918,13.1158 C7.8088,13.2538 7.8308,13.4308 7.9448,13.5448 L9.0108,14.6108 C9.1238,14.7248 9.3008,14.7468 9.4388,14.6638 L10.2448,14.1798 C10.4188,14.2618 10.6008,14.3228 10.7868,14.3798 L10.9998,15.2328 C11.0388,15.3888 11.1788,15.4978 11.3398,15.4978 L12.8478,15.4978 C13.0088,15.4978 13.1488,15.3888 13.1878,15.2328 L13.4168,14.3168 C13.5988,14.2508 13.7718,14.1698 13.9408,14.0798 L14.6938,14.5308 C14.8318,14.6138 15.0088,14.5918 15.1218,14.4788 L16.1878,13.4128 C16.3018,13.2988 16.3238,13.1218 16.2408,12.9838 L15.7578,12.1778 C15.8388,12.0048 15.9008,11.8218 15.9578,11.6368 L16.8098,11.4228 C16.9658,11.3838 17.0758,11.2438 17.0758,11.0828 L17.0758,9.5758 C17.0758,9.4138 16.9658,9.2738 16.8098,9.2348 Z" id="Stroke-4" stroke="#FFFFFF" stroke-width="0.75" stroke-linecap="round" stroke-linejoin="round"></path>
                        <path d="M14,10.4227 C14,11.5277 13.105,12.4227 12,12.4227 C10.895,12.4227 10,11.5277 10,10.4227 C10,9.3177 10.895,8.4227 12,8.4227 C13.105,8.4227 14,9.3177 14,10.4227 Z" id="Stroke-6" stroke="#FFFFFF" stroke-width="0.75"></path>
                        <line x1="0.8204" y1="3.4071" x2="23.5364" y2="3.4071" id="Stroke-8" stroke="#FFFFFF"></line>
                    </g>
                </g>
            </g>
        </g>
    </g>
</svg>