<?xml version="1.0" encoding="UTF-8"?>
<svg width="28px" height="28px" viewBox="0 0 28 28" version="1.1" xmlns="http://www.w3.org/2000/svg" xmlns:xlink="http://www.w3.org/1999/xlink">
    <title>Icon-GNB-Environment</title>
    <g id="Page-1" stroke="none" stroke-width="1" fill="none" fill-rule="evenodd">
        <g id="Icon-GNB" transform="translate(-47.000000, -760.000000)">
            <g id="Icon-GNB-Environment" transform="translate(47.000000, 760.000000)">
                <rect id="Rectangle" fill="#FFFFFF" opacity="0" x="0" y="0" width="28" height="28"></rect>
                <g id="Group">
                    <polygon id="Fill-1" points="0 28 28 28 28 0 0 0"></polygon>
                    <g id="Group-8" transform="translate(2.660800, 2.305400)">
                        <path d="M11.9256,1.5044 C17.2636,1.7904 21.5056,6.2664 21.5056,11.7444 C21.5056,17.4084 16.9736,22.0004 11.3816,22.0004 C5.7906,22.0004 1.2586,17.4084 1.2586,11.7444 C1.2586,8.2934 2.9416,5.2404 5.5216,3.3814" id="Stroke-2" stroke="#FFFFFF" stroke-linecap="round" stroke-linejoin="round"></path>
                        <path d="M9.041,0 C8.438,0 7.852,0.058 7.281,0.143 C2.66,0.832 0,3.829 0,7.443 C0,8.752 0.177,9.883 0.898,10.951 C1.188,10.987 1.719,11.11 2.019,11.11 C5.834,11.11 8.908,8.463 8.908,4.785 C8.908,4.737 8.925,4.509 8.924,4.461 C8.922,4.384 8.944,4.155 8.94,4.079 C8.969,2.31 10.18,0.84 11.868,0.376 C10.978,0.135 10.029,0 9.041,0 M9.041,1 C9.059,1 9.076,1 9.094,1 C8.381,1.842 7.96,2.921 7.941,4.1 C7.94,4.133 7.937,4.18 7.934,4.226 C7.927,4.33 7.923,4.43 7.924,4.452 L7.917,4.578 C7.911,4.668 7.908,4.754 7.908,4.785 C7.908,7.821 5.376,10.11 2.019,10.11 C1.925,10.11 1.688,10.07 1.514,10.04 C1.152,9.359 1,8.573 1,7.443 C1,4.142 3.463,1.723 7.428,1.133 C8.027,1.043 8.554,1 9.041,1" id="Fill-4" fill="#FFFFFF"></path>
                        <path d="M16.9284,2.8604 L15.9414,2.8604 C16.0264,3.0004 16.0894,3.1544 16.0894,3.3294 C16.0894,3.8494 15.6494,4.2274 15.1114,4.2714 C15.0774,4.2744 15.0434,4.2754 15.0104,4.2754 C14.8504,4.2754 14.7224,4.2464 14.7224,4.2464 C14.3054,4.1694 13.9004,4.1284 13.5194,4.1284 C13.1684,4.1284 12.8374,4.1634 12.5374,4.2394 C12.3844,4.2794 12.2384,4.3324 12.0974,4.3964 C11.8234,4.5084 11.5984,4.6594 11.4134,4.8354 C11.3554,4.8854 11.3044,4.9404 11.2504,4.9954 C11.2414,5.0064 11.2294,5.0164 11.2204,5.0274 C11.0434,5.2144 10.9024,5.4314 10.7854,5.6604 C10.6044,6.0124 10.4914,6.4034 10.4914,6.8254 C10.4914,8.1014 11.4074,9.1654 12.6334,9.4414 C13.5814,9.6534 13.7684,10.0364 13.7684,10.6654 C13.7684,11.2934 13.3104,11.9654 12.7514,12.2044 C12.6324,12.2564 12.5094,12.2984 12.3854,12.3354 C12.3374,12.3494 12.2894,12.3624 12.2404,12.3744 C12.1614,12.3944 12.0834,12.4154 12.0054,12.4394 C11.7024,12.5304 11.4084,12.6494 11.1294,12.7974 C10.8434,12.9494 10.5734,13.1314 10.3254,13.3374 C10.0574,13.5614 9.8134,13.8124 9.5934,14.0804 C8.1984,15.7784 8.3404,18.1264 9.9094,19.3244 C10.5184,19.7884 11.2534,20.0124 12.0054,20.0124 C13.1914,20.0124 14.4224,19.4564 15.2764,18.4174 C15.5734,18.0564 15.7734,17.6614 15.9314,17.2594 C16.1674,16.7734 16.3904,16.2194 16.5764,15.6084 C16.6654,15.3184 16.7384,15.0344 16.8014,14.7574 C16.8014,14.7574 16.8924,14.3194 16.9064,14.2374 C17.1464,13.1324 18.1624,12.3014 19.3804,12.3014 C20.4874,12.3014 21.4184,12.9924 21.7604,13.9474 C21.9134,13.2374 22.0004,12.5014 22.0004,11.7454 C22.0004,7.9454 19.9584,4.6324 16.9284,2.8604 M16.8044,3.6624 C19.5544,5.3904 21.2504,8.4594 21.2504,11.7454 C21.2504,11.8704 21.2474,11.9964 21.2424,12.1224 C20.7074,11.7584 20.0614,11.5514 19.3804,11.5514 C17.8394,11.5514 16.4904,12.6144 16.1684,14.1064 C16.1544,14.1824 16.0704,14.5904 16.0704,14.5904 C16.0104,14.8504 15.9424,15.1174 15.8594,15.3904 C15.6954,15.9264 15.4924,16.4454 15.2564,16.9324 L15.2434,16.9584 L15.2324,16.9864 C15.0784,17.3804 14.9084,17.6844 14.6964,17.9414 C14.0174,18.7684 13.0114,19.2624 12.0054,19.2624 C11.3894,19.2624 10.8224,19.0774 10.3644,18.7274 C9.8254,18.3164 9.4844,17.7034 9.4024,17.0024 C9.3054,16.1624 9.5854,15.2714 10.1734,14.5564 C10.3724,14.3134 10.5854,14.0974 10.8054,13.9144 C11.0174,13.7384 11.2444,13.5854 11.4814,13.4594 C11.7114,13.3374 11.9604,13.2364 12.2214,13.1574 C12.2884,13.1374 12.3554,13.1184 12.4234,13.1014 C12.4814,13.0874 12.5384,13.0714 12.5954,13.0554 C12.7484,13.0104 12.8994,12.9574 13.0464,12.8944 C13.8854,12.5344 14.5184,11.5764 14.5184,10.6654 C14.5184,9.5784 13.9874,8.9754 12.7984,8.7104 C11.8814,8.5034 11.2414,7.7284 11.2414,6.8254 C11.2414,6.5514 11.3124,6.2744 11.4524,6.0024 C11.5494,5.8134 11.6514,5.6634 11.7654,5.5424 L11.7734,5.5344 C11.7964,5.5114 11.8144,5.4924 11.8174,5.4894 C11.8454,5.4594 11.8734,5.4294 11.9314,5.3784 C12.0584,5.2564 12.2064,5.1624 12.4044,5.0804 C12.5134,5.0314 12.6224,4.9924 12.7204,4.9664 C12.9534,4.9074 13.2214,4.8784 13.5194,4.8784 C13.8454,4.8784 14.2044,4.9134 14.5604,4.9794 C14.5954,4.9864 14.7804,5.0254 15.0104,5.0254 C15.0634,5.0254 15.1174,5.0234 15.1734,5.0184 C16.0004,4.9504 16.6504,4.3904 16.8044,3.6624" id="Fill-6" fill="#FFFFFF"></path>
                    </g>
                </g>
            </g>
        </g>
    </g>
</svg>