<?xml version="1.0" encoding="UTF-8"?>
<svg width="28px" height="28px" viewBox="0 0 28 28" version="1.1" xmlns="http://www.w3.org/2000/svg" xmlns:xlink="http://www.w3.org/1999/xlink">
    <title>Icon-GNB-Image Sensor</title>
    <g id="Page-1" stroke="none" stroke-width="1" fill="none" fill-rule="evenodd">
        <g id="Icon-GNB" transform="translate(-114.000000, -156.000000)">
            <g id="Icon-GNB-Image-Sensor" transform="translate(114.000000, 156.000000)">
                <rect id="Rectangle" fill="#FFFFFF" opacity="0" x="0" y="0" width="28" height="28"></rect>
                <g id="Group">
                    <polygon id="Fill-1" points="0 28 28 28 28 0 0 0"></polygon>
                    <g id="Group-8" transform="translate(4.000000, 4.000000)">
                        <path d="M10,0 C4.477,0 0,4.477 0,10 C0,15.523 4.477,20 10,20 C15.523,20 20,15.523 20,10 C20,4.477 15.523,0 10,0 M10,1 C14.963,1 19,5.037 19,10 C19,14.963 14.963,19 10,19 C5.037,19 1,14.963 1,10 C1,5.037 5.037,1 10,1" id="Fill-2" fill="#FFFFFF"></path>
                        <path d="M10,2.2727 C5.732,2.2727 2.273,5.7327 2.273,9.9997 C2.273,14.2677 5.732,17.7277 10,17.7277 C14.268,17.7277 17.727,14.2677 17.727,9.9997 C17.727,5.7327 14.268,2.2727 10,2.2727 M10,3.0227 C13.847,3.0227 16.977,6.1527 16.977,9.9997 C16.977,13.8477 13.847,16.9777 10,16.9777 C6.153,16.9777 3.023,13.8477 3.023,9.9997 C3.023,6.1527 6.153,3.0227 10,3.0227" id="Fill-4" fill="#FFFFFF"></path>
                        <path d="M11.6324,5.552 C13.5414,6.231 14.9084,8.053 14.9084,10.195" id="Stroke-6" stroke="#FFFFFF" stroke-width="0.75" stroke-linecap="round" stroke-linejoin="round"></path>
                    </g>
                </g>
            </g>
        </g>
    </g>
</svg>