<?xml version="1.0" encoding="UTF-8"?>
<svg width="28px" height="28px" viewBox="0 0 28 28" version="1.1" xmlns="http://www.w3.org/2000/svg" xmlns:xlink="http://www.w3.org/1999/xlink">
    <title>Icon-GNB-Display IC</title>
    <g id="Page-1" stroke="none" stroke-width="1" fill="none" fill-rule="evenodd">
        <g id="Icon-GNB" transform="translate(-186.000000, -156.000000)">
            <g id="Icon-GNB-Display-IC" transform="translate(186.000000, 156.000000)">
                <rect id="Rectangle" fill="#FFFFFF" opacity="0" x="0" y="0" width="28" height="28"></rect>
                <g id="Group">
                    <polygon id="Fill-1" points="0 28 28 28 28 0 0 0"></polygon>
                    <g id="Group-8" transform="translate(4.000400, 5.818200)">
                        <path d="M17.932,0 L2.067,0 C0.925,0 0,0.926 0,2.068 L0,14.296 C0,15.438 0.925,16.364 2.067,16.364 L17.932,16.364 C19.074,16.364 20,15.438 20,14.296 L20,2.068 C20,0.926 19.074,0 17.932,0 M17.932,1 C18.521,1 19,1.479 19,2.068 L19,14.296 C19,14.885 18.521,15.364 17.932,15.364 L2.067,15.364 C1.479,15.364 1,14.885 1,14.296 L1,2.068 C1,1.479 1.479,1 2.067,1 L17.932,1" id="Fill-2" fill="#FFFFFF"></path>
                        <path d="M2.8922,6.0743 L2.8922,4.1223 C2.8922,3.5113 3.3872,3.0163 3.9982,3.0163 L6.1982,3.0163" id="Stroke-4" stroke="#FFFFFF" stroke-width="0.75" stroke-linecap="round" stroke-linejoin="round"></path>
                        <path d="M17.107,10.2893 L17.107,12.2413 C17.107,12.8523 16.612,13.3473 16.001,13.3473 L13.801,13.3473" id="Stroke-6" stroke="#FFFFFF" stroke-width="0.75" stroke-linecap="round" stroke-linejoin="round"></path>
                    </g>
                </g>
            </g>
        </g>
    </g>
</svg>