<?xml version="1.0" encoding="UTF-8"?>
<svg width="28px" height="31px" viewBox="0 0 28 31" version="1.1" xmlns="http://www.w3.org/2000/svg" xmlns:xlink="http://www.w3.org/1999/xlink">
    <title>B8BD2CBF-A625-412C-BB2F-9B029CA61F08</title>
    <g id="Design" stroke="none" stroke-width="1" fill="none" fill-rule="evenodd">
        <g id="GNB-Sustainability-PC" transform="translate(-126.000000, -108.000000)">
            <g id="NAV" transform="translate(0.000000, 60.000000)">
                <g id="1line" transform="translate(126.000000, 47.999938)">
                    <g id="26-/-CPU-(Sub)" transform="translate(0.000000, 0.000062)">
                        <polygon id="Fill-1" points="0 28 28 28 28 0 0 0"></polygon>
                        <g id="Group-2" transform="translate(2.192935, 2.436089)" fill="#FFFFFF" fill-rule="nonzero">
                            <path d="M16.0563759,6.2525302 C17.2504236,6.175934 18.2774162,7.08981913 18.3830309,8.30658846 L18.3846536,8.3679088 L18.0825654,17.3290218 C18.0814541,17.845041 17.8822157,18.3414282 17.5273113,18.7093457 L12.7265042,23.6851667 C12.5555363,23.8621549 12.4581979,24.104826 12.4576512,24.3586664 L12.456019,25.1165215 C12.4545976,25.7764995 11.9307679,26.3193358 11.2762667,26.3207456 L6.39089953,26.3312779 C5.7346176,26.332678 5.21089312,25.7893673 5.21230357,25.1277267 L5.22257602,20.3626394 C5.22368779,19.8464382 5.42267885,19.3504707 5.77783603,18.9823095 L10.8475812,13.7279193 C11.4720511,13.080479 12.3798522,12.8985277 13.1612958,13.1835248 L13.2366208,13.2123248 L13.9853292,8.38115813 L13.9881678,8.33891673 C14.0744293,7.24385543 14.9150218,6.36199904 15.9847284,6.25828543 L16.0563759,6.2525302 Z M16.1788201,7.26905129 L16.1215356,7.27128182 C15.5198069,7.30965547 15.0336777,7.81982883 15.0032229,8.46068765 L14.9977762,8.51463362 L14.1591625,13.9245748 L14.1897816,13.965182 C14.8179613,14.8309667 14.7657028,16.0539392 14.035736,16.8651356 L13.9811143,16.9237454 L11.5715466,19.421187 C11.3758174,19.6240541 11.0526912,19.6298406 10.8498241,19.4341114 C10.6469569,19.2383823 10.6411705,18.9152561 10.8368996,18.712389 L13.2465118,16.2149014 C13.7216232,15.7225868 13.7233513,14.920222 13.251726,14.4313696 C12.7905088,13.9530377 12.047203,13.9546389 11.5822738,14.4366699 L6.5124998,19.69109 C6.34123533,19.8686253 6.2439535,20.1110916 6.24340699,20.3648388 L6.2331369,25.129917 C6.23291447,25.2342835 6.30649897,25.3104445 6.38870834,25.3104445 L11.2740672,25.2999147 C11.3582071,25.2997334 11.43496,25.2201956 11.435188,25.1143229 L11.4368203,24.3564678 C11.4379324,23.8400882 11.6370535,23.3436659 11.9920744,22.9761438 L16.7926329,18.0005803 C16.9494361,17.8380277 17.044428,17.6203718 17.0598136,17.377562 L17.3631208,8.36949146 L17.3593694,8.33431336 C17.2795251,7.73460076 16.8016959,7.29135831 16.2374824,7.26976961 L16.1788201,7.26905129 Z" id="Stroke-1" transform="translate(11.798477, 16.289664) rotate(46.000000) translate(-11.798477, -16.289664) "></path>
                            <path d="M11.7975022,9.0344929 C13.9751576,9.0344929 15.98631,10.0466548 17.2894378,11.7393084 C17.4614025,11.9626761 17.4197321,12.2831563 17.1963644,12.455121 C16.9729967,12.6270857 16.6525165,12.5854153 16.4805518,12.3620476 C15.3686642,10.9177989 13.6549423,10.0553262 11.7975022,10.0553262 C9.80406936,10.0553262 7.98006595,11.0498272 6.88954518,12.6746898 C6.7324526,12.9087559 6.4153559,12.9711552 6.18128987,12.8140626 C5.94722384,12.65697 5.88482454,12.3398733 6.04191711,12.1058073 C7.32006876,10.2013769 9.46023809,9.0344929 11.7975022,9.0344929 Z" id="Path"></path>
                            <path d="M12.2830491,5.62559373 C12.4313918,5.38588676 12.7459682,5.31182136 12.9856752,5.46016405 C13.2253821,5.60850673 13.2994475,5.92308312 13.1511049,6.1627901 L11.1491891,9.41904011 C11.0008464,9.65874709 10.68627,9.73281248 10.446563,9.5844698 C10.2068561,9.43612712 10.1327907,9.12155072 10.2811333,8.88184375 L12.2830491,5.62559373 Z" id="Stroke-33" transform="translate(11.716119, 7.522317) rotate(-32.000000) translate(-11.716119, -7.522317) "></path>
                            <path d="M13.2863283,3.66715027 C13.4320066,3.42581479 13.7457432,3.34826934 13.9870787,3.49394765 C14.2284142,3.63962596 14.3059597,3.95336262 14.1602814,4.1946981 L12.7436577,6.5415234 C12.5979794,6.78285888 12.2842427,6.86040434 12.0429073,6.71472603 C11.8015718,6.56904772 11.7240263,6.25531105 11.8697046,6.01397557 L13.2863283,3.66715027 Z" id="Stroke-33" transform="translate(13.014993, 5.104337) rotate(-330.000000) translate(-13.014993, -5.104337) "></path>
                            <path d="M16.4728059,0.967335679 L16.3837535,0.971560414 C16.2363927,0.980368458 16.0282656,1.00072813 15.7762928,1.03847679 C15.2638804,1.11524253 14.7505801,1.2400468 14.2661372,1.42565309 C13.42001,1.74983272 12.7485639,2.22585942 12.3325303,2.89246067 C11.8274344,3.70187768 11.7499419,4.70833371 11.9652383,5.81415287 C12.0393953,6.19504302 12.1446891,6.56450937 12.2687796,6.91197698 C12.3381968,7.10635301 12.403096,7.26577063 12.4554818,7.38265564 L12.4808396,7.43801195 C12.5666195,7.62097271 12.75226,7.73610281 12.9542818,7.73163021 L13.0937678,7.72552482 C13.2355603,7.71680586 13.4233669,7.69876558 13.6454616,7.66706157 C14.1535241,7.59453564 14.6625141,7.47276555 15.1430546,7.28825162 C15.96999,6.97073185 16.6290953,6.49965846 17.0422407,5.83768488 C17.3379521,5.36397902 17.4914367,4.81124346 17.5257324,4.20076197 C17.5642151,3.51575155 17.4532967,2.79761473 17.2461447,2.0885766 C17.1391345,1.72230307 17.0311806,1.438086 16.9557208,1.26922579 C16.8710695,1.07979755 16.6801743,0.960461021 16.4728059,0.967335679 Z M16.1088557,2.02325406 L16.151538,2.01815956 L16.1651816,2.05658442 C16.1996608,2.15677865 16.2336551,2.26320501 16.2662745,2.37485466 C16.4435422,2.98160482 16.5375769,3.59042915 16.5065062,4.14350368 C16.4812449,4.59316758 16.373498,4.98119046 16.1762573,5.29715417 C15.8959375,5.74630426 15.4141105,6.09067393 14.7771312,6.33525592 C14.3751868,6.48959121 13.9386572,6.59402597 13.5012,6.65647297 L13.3334706,6.67828625 L13.272788,6.68482623 L13.2301456,6.568646 C13.1223416,6.26678248 13.0308814,5.945857 12.9672571,5.6190658 C12.7966526,4.74279591 12.8551335,3.98325879 13.1985578,3.43292072 C13.4807179,2.98082203 13.9750187,2.63038379 14.6313641,2.37891592 C15.0398443,2.22241346 15.4832474,2.11460406 15.9275385,2.04804374 C15.9899092,2.03869983 16.0504366,2.03046144 16.1088557,2.02325406 Z" id="Stroke-35" transform="translate(14.692879, 4.349405) rotate(-330.000000) translate(-14.692879, -4.349405) "></path>
                            <path d="M10.6957096,3.51709331 C10.8372474,3.27330642 11.1496147,3.19041712 11.3934016,3.33195488 C11.6371885,3.47349264 11.7200778,3.78585998 11.57854,4.02964687 L10.2198091,6.36994659 C10.0782714,6.61373348 9.76590404,6.69662277 9.52211715,6.55508501 C9.27833026,6.41354726 9.19544097,6.10117991 9.33697873,5.85739303 L10.6957096,3.51709331 Z" id="Stroke-33" transform="translate(10.457759, 4.943520) rotate(-90.000000) translate(-10.457759, -4.943520) "></path>
                            <path d="M10.6593936,0.666742843 L10.5703411,0.670967578 C10.4229803,0.679775622 10.2148532,0.700135298 9.96288044,0.737883949 C9.45046809,0.81464969 8.93716777,0.939453961 8.45272485,1.12506025 C7.60659767,1.44923988 6.93515156,1.92526659 6.51911799,2.59186784 C6.0202737,3.39126652 5.94002483,4.36793543 6.14995118,5.43007744 C6.22299448,5.79964686 6.32780051,6.15822998 6.45244414,6.49648978 L6.51274562,6.65472284 C6.56207317,6.77984003 6.60871794,6.88777092 6.6498782,6.97606264 L6.68178658,7.04279572 C6.75967028,7.20187187 6.91383231,7.30822279 7.0879866,7.32609704 L7.1442151,7.32886843 L7.16881992,7.32886843 C7.32956432,7.32833488 7.53684996,7.31857154 7.77955535,7.29385446 C8.14124636,7.2570199 8.51013256,7.19345907 8.87320999,7.09673197 C9.90665561,6.82141274 10.73656,6.32584253 11.2288283,5.53709204 C11.5245397,5.06338619 11.6780243,4.51065063 11.7123201,3.90016913 C11.7508027,3.21515872 11.6398843,2.49702189 11.4327324,1.78798377 L11.3793034,1.61183921 C11.2906402,1.33017557 11.2051916,1.1093498 11.1423084,0.968632949 C11.0576571,0.779204715 10.8667619,0.659868184 10.6593936,0.666742843 Z M10.338038,1.71745123 L10.3517692,1.75599158 C10.3862484,1.85618582 10.4202427,1.96261218 10.4528622,2.07426182 C10.6301298,2.68101198 10.7241645,3.28983631 10.6930938,3.84291084 C10.6678325,4.29257474 10.5600856,4.68059762 10.3628449,4.99656134 C10.0305973,5.52891416 9.41668457,5.89550685 8.61041666,6.11030389 C8.30339072,6.19209837 7.98698642,6.24661632 7.67612879,6.27827401 L7.52696428,6.29177923 L7.46862136,6.2957429 L7.46133199,6.27751157 C7.44475832,6.23540331 7.42768799,6.19067213 7.41031623,6.14352838 C7.30323053,5.85291754 7.21327282,5.54513644 7.15141173,5.23214443 C6.98708716,4.40072893 7.04674954,3.67460787 7.38514549,3.13232789 C7.66730552,2.6802292 8.16160636,2.32979095 8.81795173,2.07832308 C9.22643199,1.92182063 9.66983508,1.81401123 10.1141261,1.7474509 C10.1764969,1.73810699 10.2370242,1.72986861 10.2954433,1.72266122 L10.338038,1.71745123 Z" id="Stroke-35" transform="translate(8.880684, 3.997665) rotate(-90.000000) translate(-8.880684, -3.997665) "></path>
                        </g>
                    </g>
                </g>
            </g>
        </g>
    </g>
</svg>