<svg xmlns="http://www.w3.org/2000/svg" width="24" height="24" viewBox="0 0 24 24">
    <g fill="none" fill-rule="evenodd">
        <g fill="#a2a2a2" fill-rule="nonzero">
            <g>
                <g>
                    <g>
                        <path d="M10.145 1.023c5.032 0 9.125 4.093 9.125 9.125 0 2.147-.745 4.123-1.99 5.683l5.7 5.737-1.42 1.41-5.69-5.729c-1.567 1.265-3.56 2.024-5.725 2.024-5.031 0-9.125-4.094-9.125-9.125 0-5.032 4.094-9.125 9.125-9.125zm0 2c-3.928 0-7.125 3.196-7.125 7.125 0 3.928 3.197 7.125 7.125 7.125 3.93 0 7.125-3.197 7.125-7.125 0-3.93-3.196-7.125-7.125-7.125z" transform="translate(-402.000000, -1069.000000) translate(320.000000, 986.000000) translate(58.000000, 67.000000) translate(24.000000, 16.000000)"/>
                    </g>
                </g>
            </g>
        </g>
    </g>
</svg>
