<svg width="24" height="24" xmlns="http://www.w3.org/2000/svg">
    <g fill="none" fill-rule="evenodd">
        <path stroke="#FCF100" stroke-width="2" fill="#000" d="M1 1h22v22H1z"/>
        <path d="M12.446 16.112c.404 0 .79-.056 1.16-.168.37-.112.713-.27 1.03-.476a4.36 4.36 0 0 0 1.518-1.686l-1.39-.728c-.216.448-.52.816-.912 1.104-.392.287-.872.43-1.44.43-.38 0-.733-.068-1.058-.206a2.54 2.54 0 0 1-.84-.572 2.712 2.712 0 0 1-.756-1.898c0-.38.068-.735.202-1.064.134-.329.321-.614.56-.857.239-.242.523-.433.851-.571a2.746 2.746 0 0 1 1.075-.207c.53 0 .979.123 1.344.37a2.9 2.9 0 0 1 .908 1.007l1.332-.85a4.115 4.115 0 0 0-.644-.835 3.9 3.9 0 0 0-.84-.639 4.338 4.338 0 0 0-.996-.408 4.16 4.16 0 0 0-1.104-.146c-.59 0-1.14.105-1.652.314-.511.209-.955.5-1.332.873a4.088 4.088 0 0 0-.89 1.327 4.28 4.28 0 0 0-.326 1.686c0 .582.101 1.13.303 1.64.201.512.485.957.851 1.334.366.377.808.675 1.327.896.52.22 1.092.33 1.72.33z" fill="#FCF100" fill-rule="nonzero"/>
    </g>
</svg>
