   <svg width="28px" height="28px" viewBox="0 0 28 28" version="1.1" xmlns="http://www.w3.org/2000/svg" xmlns:xlink="http://www.w3.org/1999/xlink">
                                        <title>Icon-GNB-SAFE</title>
                                        <g id="Page-1" stroke="none" stroke-width="1" fill="none" fill-rule="evenodd">
                                            <g id="Icon-GNB" transform="translate(-115.000000, -361.000000)">
                                                <g id="Icon-GNB-SAFE" transform="translate(115.000000, 361.000000)">
                                                    <rect id="Rectangle" fill="#FFFFFF" opacity="0" x="0" y="0" width="28" height="28"></rect>
                                                    <g id="Group">
                                                        <polygon id="Fill-1" points="0 28 28 28 28 0 0 0"></polygon>
                                                        <g id="Group-136" transform="translate(2.561200, 2.250400)">
                                                            <path d="M11.4388,7.8552 C10.4418,7.8552 9.4458,8.2352 8.6848,8.9962 C7.1638,10.5172 7.1638,12.9822 8.6848,14.5032 C9.4458,15.2642 10.4418,15.6442 11.4388,15.6442 C12.4358,15.6442 13.4318,15.2642 14.1928,14.5032 C15.7138,12.9822 15.7138,10.5172 14.1928,8.9962 C13.4318,8.2352 12.4358,7.8552 11.4388,7.8552 M11.4388,8.6052 C12.2788,8.6052 13.0688,8.9322 13.6618,9.5262 C14.2558,10.1202 14.5828,10.9102 14.5828,11.7492 C14.5828,12.5892 14.2558,13.3792 13.6618,13.9732 C13.0688,14.5672 12.2788,14.8942 11.4388,14.8942 C10.5988,14.8942 9.8088,14.5672 9.2158,13.9732 C8.6218,13.3792 8.2948,12.5892 8.2948,11.7492 C8.2948,10.9102 8.6218,10.1202 9.2158,9.5262 C9.8088,8.9322 10.5988,8.6052 11.4388,8.6052" id="Fill-2" fill="#FFFFFF"></path>
                                                            <polygon id="Fill-4" fill="#FFFFFF" points="12.0667 10.2427 11.6897 9.8657 12.0667 9.4897 12.4437 9.8657"></polygon>
                                                            <polygon id="Fill-6" fill="#FFFFFF" points="12.6945 10.8706 12.3175 10.4936 12.6945 10.1176 13.0715 10.4936"></polygon>
                                                            <polygon id="Fill-8" fill="#FFFFFF" points="12.0667 10.2427 11.6897 9.8657 12.0667 9.4897 12.4437 9.8657"></polygon>
                                                            <polygon id="Fill-10" fill="#FFFFFF" points="12.6945 10.8706 12.3175 10.4936 12.6945 10.1176 13.0715 10.4936"></polygon>
                                                            <polygon id="Fill-12" fill="#FFFFFF" points="13.3224 11.4985 12.9454 11.1215 13.3224 10.7455 13.6994 11.1215"></polygon>
                                                            <polygon id="Fill-14" fill="#FFFFFF" points="12.0667 10.2427 11.6897 9.8657 12.0667 9.4897 12.4437 9.8657"></polygon>
                                                            <polygon id="Fill-16" fill="#FFFFFF" points="12.6945 10.8706 12.3175 10.4936 12.6945 10.1176 13.0715 10.4936"></polygon>
                                                            <polygon id="Fill-18" fill="#FFFFFF" points="13.3224 11.4985 12.9454 11.1215 13.3224 10.7455 13.6994 11.1215"></polygon>
                                                            <polygon id="Fill-20" fill="#FFFFFF" points="12.6945 10.8706 12.3175 10.4936 12.6945 10.1176 13.0715 10.4936"></polygon>
                                                            <polygon id="Fill-22" fill="#FFFFFF" points="13.3224 11.4985 12.9454 11.1215 13.3224 10.7455 13.6994 11.1215"></polygon>
                                                            <polygon id="Fill-24" fill="#FFFFFF" points="10.8109 10.2427 10.4339 9.8657 10.8109 9.4897 11.1879 9.8657"></polygon>
                                                            <polygon id="Fill-26" fill="#FFFFFF" points="11.4388 10.8706 11.0618 10.4936 11.4388 10.1176 11.8158 10.4936"></polygon>
                                                            <polygon id="Fill-28" fill="#FFFFFF" points="12.0667 11.4985 11.6897 11.1215 12.0667 10.7455 12.4437 11.1215"></polygon>
                                                            <polygon id="Fill-30" fill="#FFFFFF" points="11.4388 10.8706 11.0618 10.4936 11.4388 10.1176 11.8158 10.4936"></polygon>
                                                            <polygon id="Fill-32" fill="#FFFFFF" points="12.0667 11.4985 11.6897 11.1215 12.0667 10.7455 12.4437 11.1215"></polygon>
                                                            <polygon id="Fill-34" fill="#FFFFFF" points="12.6945 12.1263 12.3175 11.7493 12.6945 11.3733 13.0715 11.7493"></polygon>
                                                            <polygon id="Fill-36" fill="#FFFFFF" points="11.4388 10.8706 11.0618 10.4936 11.4388 10.1176 11.8158 10.4936"></polygon>
                                                            <polygon id="Fill-38" fill="#FFFFFF" points="12.0667 11.4985 11.6897 11.1215 12.0667 10.7455 12.4437 11.1215"></polygon>
                                                            <polygon id="Fill-40" fill="#FFFFFF" points="12.6945 12.1263 12.3175 11.7493 12.6945 11.3733 13.0715 11.7493"></polygon>
                                                            <polygon id="Fill-42" fill="#FFFFFF" points="12.0667 11.4985 11.6897 11.1215 12.0667 10.7455 12.4437 11.1215"></polygon>
                                                            <polygon id="Fill-44" fill="#FFFFFF" points="12.6945 12.1263 12.3175 11.7493 12.6945 11.3733 13.0715 11.7493"></polygon>
                                                            <polygon id="Fill-46" fill="#FFFFFF" points="13.3224 12.7542 12.9454 12.3772 13.3224 12.0012 13.6994 12.3772"></polygon>
                                                            <polygon id="Fill-48" fill="#FFFFFF" points="10.1831 10.8706 9.8061 10.4936 10.1831 10.1176 10.5601 10.4936"></polygon>
                                                            <polygon id="Fill-50" fill="#FFFFFF" points="10.8109 11.4985 10.4339 11.1215 10.8109 10.7455 11.1879 11.1215"></polygon>
                                                            <polygon id="Fill-52" fill="#FFFFFF" points="11.4388 12.1263 11.0618 11.7493 11.4388 11.3733 11.8158 11.7493"></polygon>
                                                            <polygon id="Fill-54" fill="#FFFFFF" points="10.8109 11.4985 10.4339 11.1215 10.8109 10.7455 11.1879 11.1215"></polygon>
                                                            <polygon id="Fill-56" fill="#FFFFFF" points="11.4388 12.1263 11.0618 11.7493 11.4388 11.3733 11.8158 11.7493"></polygon>
                                                            <polygon id="Fill-58" fill="#FFFFFF" points="12.0667 12.7542 11.6897 12.3772 12.0667 12.0012 12.4437 12.3772"></polygon>
                                                            <polygon id="Fill-60" fill="#FFFFFF" points="10.8109 11.4985 10.4339 11.1215 10.8109 10.7455 11.1879 11.1215"></polygon>
                                                            <polygon id="Fill-62" fill="#FFFFFF" points="11.4388 12.1263 11.0618 11.7493 11.4388 11.3733 11.8158 11.7493"></polygon>
                                                            <polygon id="Fill-64" fill="#FFFFFF" points="12.0667 12.7542 11.6897 12.3772 12.0667 12.0012 12.4437 12.3772"></polygon>
                                                            <polygon id="Fill-66" fill="#FFFFFF" points="11.4388 12.1263 11.0618 11.7493 11.4388 11.3733 11.8158 11.7493"></polygon>
                                                            <polygon id="Fill-68" fill="#FFFFFF" points="12.0667 12.7542 11.6897 12.3772 12.0667 12.0012 12.4437 12.3772"></polygon>
                                                            <polygon id="Fill-70" fill="#FFFFFF" points="12.6945 13.382 12.3175 13.005 12.6945 12.629 13.0715 13.005"></polygon>
                                                            <polygon id="Fill-72" fill="#FFFFFF" points="9.5552 11.4985 9.1782 11.1215 9.5552 10.7455 9.9322 11.1215"></polygon>
                                                            <polygon id="Fill-74" fill="#FFFFFF" points="10.1831 12.1263 9.8061 11.7493 10.1831 11.3733 10.5601 11.7493"></polygon>
                                                            <polygon id="Fill-76" fill="#FFFFFF" points="10.8109 12.7542 10.4339 12.3772 10.8109 12.0012 11.1879 12.3772"></polygon>
                                                            <polygon id="Fill-78" fill="#FFFFFF" points="10.1831 12.1263 9.8061 11.7493 10.1831 11.3733 10.5601 11.7493"></polygon>
                                                            <polygon id="Fill-80" fill="#FFFFFF" points="10.8109 12.7542 10.4339 12.3772 10.8109 12.0012 11.1879 12.3772"></polygon>
                                                            <polygon id="Fill-82" fill="#FFFFFF" points="11.4388 13.382 11.0618 13.005 11.4388 12.629 11.8158 13.005"></polygon>
                                                            <polygon id="Fill-84" fill="#FFFFFF" points="10.1831 12.1263 9.8061 11.7493 10.1831 11.3733 10.5601 11.7493"></polygon>
                                                            <polygon id="Fill-86" fill="#FFFFFF" points="10.8109 12.7542 10.4339 12.3772 10.8109 12.0012 11.1879 12.3772"></polygon>
                                                            <polygon id="Fill-88" fill="#FFFFFF" points="11.4388 13.382 11.0618 13.005 11.4388 12.629 11.8158 13.005"></polygon>
                                                            <polygon id="Fill-90" fill="#FFFFFF" points="10.8109 12.7542 10.4339 12.3772 10.8109 12.0012 11.1879 12.3772"></polygon>
                                                            <polygon id="Fill-92" fill="#FFFFFF" points="11.4388 13.382 11.0618 13.005 11.4388 12.629 11.8158 13.005"></polygon>
                                                            <polygon id="Fill-94" fill="#FFFFFF" points="12.0667 14.0099 11.6897 13.6329 12.0667 13.2569 12.4437 13.6329"></polygon>
                                                            <polygon id="Fill-96" fill="#FFFFFF" points="9.5552 12.7542 9.1782 12.3772 9.5552 12.0012 9.9322 12.3772"></polygon>
                                                            <polygon id="Fill-98" fill="#FFFFFF" points="10.1831 13.382 9.8061 13.005 10.1831 12.629 10.5601 13.005"></polygon>
                                                            <polygon id="Fill-100" fill="#FFFFFF" points="9.5552 12.7542 9.1782 12.3772 9.5552 12.0012 9.9322 12.3772"></polygon>
                                                            <polygon id="Fill-102" fill="#FFFFFF" points="10.1831 13.382 9.8061 13.005 10.1831 12.629 10.5601 13.005"></polygon>
                                                            <polygon id="Fill-104" fill="#FFFFFF" points="10.8109 14.0099 10.4339 13.6329 10.8109 13.2569 11.1879 13.6329"></polygon>
                                                            <polygon id="Fill-106" fill="#FFFFFF" points="9.5552 12.7542 9.1782 12.3772 9.5552 12.0012 9.9322 12.3772"></polygon>
                                                            <polygon id="Fill-108" fill="#FFFFFF" points="10.1831 13.382 9.8061 13.005 10.1831 12.629 10.5601 13.005"></polygon>
                                                            <polygon id="Fill-110" fill="#FFFFFF" points="10.8109 14.0099 10.4339 13.6329 10.8109 13.2569 11.1879 13.6329"></polygon>
                                                            <polygon id="Fill-112" fill="#FFFFFF" points="10.1831 13.382 9.8061 13.005 10.1831 12.629 10.5601 13.005"></polygon>
                                                            <polygon id="Fill-114" fill="#FFFFFF" points="10.8109 14.0099 10.4339 13.6329 10.8109 13.2569 11.1879 13.6329"></polygon>
                                                            <path d="M19.3116,5.6523 C17.9706,4.7133 17.9196,4.6773 16.5786,3.7383" id="Stroke-116" stroke="#FFFFFF" stroke-width="0.5" stroke-dasharray="0.5,0.75"></path>
                                                            <path d="M3.566,5.6523 C4.907,4.7133 4.924,4.6773 6.266,3.7383" id="Stroke-118" stroke="#FFFFFF" stroke-width="0.5" stroke-dasharray="0.5,0.75"></path>
                                                            <path d="M19.5152,16.1201 C20.0532,14.5251 19.9172,14.9281 20.4542,13.3331" id="Stroke-120" stroke="#FFFFFF" stroke-width="0.5" stroke-dasharray="0.5,0.75"></path>
                                                            <line x1="3.3103" y1="14.5253" x2="3.8483" y2="16.1203" id="Stroke-122" stroke="#FFFFFF" stroke-width="0.5" stroke-dasharray="0.5,0.75"></line>
                                                            <line x1="10.7732" y1="19.7337" x2="14.4572" y2="19.7337" id="Stroke-124" stroke="#FFFFFF" stroke-width="0.5" stroke-dasharray="0.5,0.75"></line>
                                                            <path d="M14.1217,0 L8.8317,0 L8.8317,1.721 C8.6847,1.643 8.5237,1.587 8.3447,1.587 C7.7607,1.587 7.2877,2.061 7.2877,2.645 C7.2877,3.229 7.7607,3.703 8.3447,3.703 C8.5237,3.703 8.6847,3.647 8.8317,3.569 L8.8317,5.29 L10.8107,5.29 C10.7847,5.208 10.7597,5.126 10.7597,5.037 C10.7597,4.567 11.1407,4.187 11.6097,4.187 C12.0797,4.187 12.4597,4.567 12.4597,5.037 C12.4597,5.126 12.4347,5.208 12.4087,5.29 L14.1217,5.29 L14.1217,0 Z" id="Stroke-126" stroke="#FFFFFF" stroke-linecap="round" stroke-linejoin="round"></path>
                                                            <path d="M2.8484,22.3785 L8.1384,22.3785 L8.1384,20.6575 C8.2854,20.7355 8.4464,20.7915 8.6254,20.7915 C9.2094,20.7915 9.6824,20.3175 9.6824,19.7335 C9.6824,19.1495 9.2094,18.6755 8.6254,18.6755 C8.4464,18.6755 8.2854,18.7315 8.1384,18.8095 L8.1384,17.0885 L6.1594,17.0885 C6.1854,17.1705 6.2104,17.2525 6.2104,17.3415 C6.2104,17.8115 5.8294,18.1915 5.3604,18.1915 C4.8904,18.1915 4.5104,17.8115 4.5104,17.3415 C4.5104,17.2525 4.5354,17.1705 4.5614,17.0885 L2.8484,17.0885 L2.8484,22.3785 Z" id="Stroke-128" stroke="#FFFFFF" stroke-linecap="round" stroke-linejoin="round"></path>
                                                            <path d="M19.7039,22.3786 L19.7039,17.0886 L17.9829,17.0886 C18.0609,16.9416 18.1169,16.7806 18.1169,16.6016 C18.1169,16.0176 17.6429,15.5446 17.0589,15.5446 C16.4749,15.5446 16.0009,16.0176 16.0009,16.6016 C16.0009,16.7806 16.0569,16.9416 16.1349,17.0886 L14.4139,17.0886 L14.4139,19.0676 C14.4959,19.0416 14.5779,19.0166 14.6669,19.0166 C15.1369,19.0166 15.5169,19.3976 15.5169,19.8666 C15.5169,20.3366 15.1369,20.7166 14.6669,20.7166 C14.5779,20.7166 14.4959,20.6916 14.4139,20.6656 L14.4139,22.3786 L19.7039,22.3786 Z" id="Stroke-130" stroke="#FFFFFF" stroke-linecap="round" stroke-linejoin="round"></path>
                                                            <path d="M4.4408921e-16,6.8637 L4.4408921e-16,12.1537 L1.721,12.1537 C1.643,12.3007 1.587,12.4617 1.587,12.6407 C1.587,13.2247 2.061,13.6977 2.645,13.6977 C3.229,13.6977 3.703,13.2247 3.703,12.6407 C3.703,12.4617 3.647,12.3007 3.569,12.1537 L5.29,12.1537 L5.29,10.1747 C5.208,10.2007 5.126,10.2257 5.037,10.2257 C4.567,10.2257 4.187,9.8447 4.187,9.3757 C4.187,8.9057 4.567,8.5257 5.037,8.5257 C5.126,8.5257 5.208,8.5507 5.29,8.5767 L5.29,6.8637 L4.4408921e-16,6.8637 Z" id="Stroke-132" stroke="#FFFFFF" stroke-linecap="round" stroke-linejoin="round"></path>
                                                            <path d="M22.9324,6.8637 L17.6424,6.8637 L17.6424,8.5847 C17.4954,8.5067 17.3344,8.4507 17.1554,8.4507 C16.5714,8.4507 16.0984,8.9247 16.0984,9.5087 C16.0984,10.0927 16.5714,10.5667 17.1554,10.5667 C17.3344,10.5667 17.4954,10.5107 17.6424,10.4327 L17.6424,12.1537 L19.6214,12.1537 C19.5954,12.0717 19.5704,11.9897 19.5704,11.9007 C19.5704,11.4307 19.9514,11.0507 20.4204,11.0507 C20.8904,11.0507 21.2704,11.4307 21.2704,11.9007 C21.2704,11.9897 21.2454,12.0717 21.2194,12.1537 L22.9324,12.1537 L22.9324,6.8637 Z" id="Stroke-134" stroke="#FFFFFF" stroke-linecap="round" stroke-linejoin="round"></path>
                                                        </g>
                                                    </g>
                                                </g>
                                            </g>
                                        </g>
                                    </svg>