<?xml version="1.0" encoding="UTF-8"?>
<svg width="28px" height="28px" viewBox="0 0 28 28" version="1.1" xmlns="http://www.w3.org/2000/svg" xmlns:xlink="http://www.w3.org/1999/xlink">
    <title>Icon-GNB-Contact Info</title>
    <g id="Page-1" stroke="none" stroke-width="1" fill="none" fill-rule="evenodd">
        <g id="Icon-GNB" transform="translate(-183.000000, -623.000000)">
            <g id="Icon-GNB-Contact-Info" transform="translate(183.000000, 623.000000)">
                <rect id="Rectangle" fill="#FFFFFF" opacity="0" x="0" y="0" width="28" height="28"></rect>
                <g id="Group">
                    <polygon id="Fill-1" points="0 28 28 28 28 0 0 0"></polygon>
                    <g id="Group-8" transform="translate(3.000000, 3.000000)">
                        <path d="M11,0 C4.925,0 0,4.925 0,11 C0,17.075 4.925,22 11,22 C17.075,22 22,17.075 22,11 C22,4.925 17.075,0 11,0 M11,1 C16.514,1 21,5.486 21,11 C21,16.514 16.514,21 11,21 C5.486,21 1,16.514 1,11 C1,5.486 5.486,1 11,1" id="Fill-2" fill="#FFFFFF"></path>
                        <path d="M12,4.9452 C12,5.4972 11.552,5.9452 11,5.9452 C10.448,5.9452 10,5.4972 10,4.9452 C10,4.3932 10.448,3.9452 11,3.9452 C11.552,3.9452 12,4.3932 12,4.9452" id="Fill-4" fill="#FFFFFF"></path>
                        <line x1="10.8928" y1="7.6758" x2="10.8928" y2="17.3408" id="Stroke-6" stroke="#FFFFFF" stroke-width="1.5"></line>
                    </g>
                </g>
            </g>
        </g>
    </g>
</svg>