         <svg width="28px" height="28px" viewBox="0 0 28 28" version="1.1" xmlns="http://www.w3.org/2000/svg" xmlns:xlink="http://www.w3.org/1999/xlink">
                                        <title>Icon-GNB-Technology</title>
                                        <g id="Page-1" stroke="none" stroke-width="1" fill="none" fill-rule="evenodd">
                                            <g id="Icon-GNB" transform="translate(-183.000000, -498.000000)">
                                                <g id="Icon-GNB-Technology" transform="translate(183.000000, 498.000000)">
                                                    <rect id="Rectangle" fill="#FFFFFF" opacity="0" x="0" y="0" width="28" height="28"></rect>
                                                    <g id="Group">
                                                        <polygon id="Fill-1" points="0 28 28 28 28 0 0 0"></polygon>
                                                        <g id="Group-38" transform="translate(3.077600, 2.969600)">
                                                            <path d="M16.8943,2.5272 L5.1063,2.5272 C3.6253,2.5272 2.4193,3.7322 2.4193,5.2142 L2.4193,16.8482 C2.4193,18.3302 3.6253,19.5352 5.1063,19.5352 L16.8943,19.5352 C18.3763,19.5352 19.5813,18.3302 19.5813,16.8482 L19.5813,5.2142 C19.5813,3.7322 18.3763,2.5272 16.8943,2.5272 M16.8943,3.5272 C17.8223,3.5272 18.5813,4.2862 18.5813,5.2142 L18.5813,16.8482 C18.5813,17.7762 17.8223,18.5352 16.8943,18.5352 L5.1063,18.5352 C4.1783,18.5352 3.4193,17.7762 3.4193,16.8482 L3.4193,5.2142 C3.4193,4.2862 4.1783,3.5272 5.1063,3.5272 L16.8943,3.5272" id="Fill-2" fill="#FFFFFF"></path>
                                                            <line x1="0" y1="7.9262" x2="2.716" y2="7.9262" id="Stroke-4" stroke="#FFFFFF" stroke-linecap="round" stroke-linejoin="round"></line>
                                                            <line x1="0" y1="11.1587" x2="2.716" y2="11.1587" id="Stroke-6" stroke="#FFFFFF" stroke-linecap="round" stroke-linejoin="round"></line>
                                                            <line x1="0" y1="14.3912" x2="2.716" y2="14.3912" id="Stroke-8" stroke="#FFFFFF" stroke-linecap="round" stroke-linejoin="round"></line>
                                                            <line x1="19.284" y1="7.9262" x2="22" y2="7.9262" id="Stroke-10" stroke="#FFFFFF" stroke-linecap="round" stroke-linejoin="round"></line>
                                                            <line x1="19.284" y1="11.1587" x2="22" y2="11.1587" id="Stroke-12" stroke="#FFFFFF" stroke-linecap="round" stroke-linejoin="round"></line>
                                                            <line x1="19.284" y1="14.3912" x2="22" y2="14.3912" id="Stroke-14" stroke="#FFFFFF" stroke-linecap="round" stroke-linejoin="round"></line>
                                                            <line x1="7.6533" y1="2.689" x2="7.6533" y2="0" id="Stroke-16" stroke="#FFFFFF" stroke-linecap="round" stroke-linejoin="round"></line>
                                                            <line x1="10.9189" y1="2.689" x2="10.9189" y2="0" id="Stroke-18" stroke="#FFFFFF" stroke-linecap="round" stroke-linejoin="round"></line>
                                                            <line x1="14.1844" y1="2.689" x2="14.1844" y2="0" id="Stroke-20" stroke="#FFFFFF" stroke-linecap="round" stroke-linejoin="round"></line>
                                                            <line x1="7.6533" y1="22.0005" x2="7.6533" y2="19.3115" id="Stroke-22" stroke="#FFFFFF" stroke-linecap="round" stroke-linejoin="round"></line>
                                                            <polyline id="Stroke-24" stroke="#FFFFFF" stroke-width="0.75" stroke-linecap="round" stroke-linejoin="round" points="10.9189 9.9964 10.9189 19.3124 10.9189 22.0004"></polyline>
                                                            <line x1="14.1844" y1="22.0005" x2="14.1844" y2="19.3115" id="Stroke-26" stroke="#FFFFFF" stroke-linecap="round" stroke-linejoin="round"></line>
                                                            <path d="M16.1471,9.9964 C16.1471,10.5684 15.6791,11.0314 15.1011,11.0314 C14.5241,11.0314 14.0561,10.5684 14.0561,9.9964 C14.0561,9.4244 14.5241,8.9614 15.1011,8.9614 C15.6791,8.9614 16.1471,9.4244 16.1471,9.9964 Z" id="Stroke-28" stroke="#FFFFFF" stroke-width="0.75" stroke-linecap="round" stroke-linejoin="round"></path>
                                                            <path d="M7.7819,9.9964 C7.7819,10.5684 7.3139,11.0314 6.7359,11.0314 C6.1589,11.0314 5.6909,10.5684 5.6909,9.9964 C5.6909,9.4244 6.1589,8.9614 6.7359,8.9614 C7.3139,8.9614 7.7819,9.4244 7.7819,9.9964 Z" id="Stroke-30" stroke="#FFFFFF" stroke-width="0.75" stroke-linecap="round" stroke-linejoin="round"></path>
                                                            <path d="M11.9645,8.9613 C11.9645,9.5333 11.4965,9.9963 10.9185,9.9963 C10.3415,9.9963 9.8735,9.5333 9.8735,8.9613 C9.8735,8.3893 10.3415,7.9263 10.9185,7.9263 C11.4965,7.9263 11.9645,8.3893 11.9645,8.9613 Z" id="Stroke-32" stroke="#FFFFFF" stroke-width="0.75" stroke-linecap="round" stroke-linejoin="round"></path>
                                                            <polyline id="Stroke-34" stroke="#FFFFFF" stroke-width="0.75" points="15.1014 11.0315 15.1014 13.1015 13.4004 14.2295 13.4004 18.9255"></polyline>
                                                            <polyline id="Stroke-36" stroke="#FFFFFF" stroke-width="0.75" points="6.7363 11.0315 6.7363 13.1015 8.4373 14.2295 8.4373 18.9255"></polyline>
                                                        </g>
                                                    </g>
                                                </g>
                                            </g>
                                        </g>
                                    </svg>