<?xml version="1.0" encoding="UTF-8"?>
<svg width="28px" height="28px" viewBox="0 0 28 28" version="1.1" xmlns="http://www.w3.org/2000/svg" xmlns:xlink="http://www.w3.org/1999/xlink">
    <title>Icon-GNB-Event</title>
    <g id="Page-1" stroke="none" stroke-width="1" fill="none" fill-rule="evenodd">
        <g id="Icon-GNB" transform="translate(-115.000000, -897.000000)">
            <g id="Icon-GNB-Event" transform="translate(115.000000, 897.000000)">
                <rect id="Rectangle" fill="#FFFFFF" opacity="0" x="0" y="0" width="28" height="28"></rect>
                <g id="Group">
                    <polygon id="Fill-1" points="0 28 28 28 28 0 0 0"></polygon>
                    <g id="Group-12" transform="translate(4.000000, 3.500000)">
                        <path d="M18,1.5 L2,1.5 C0.895,1.5 0,2.395 0,3.5 L0,19.5 C0,20.605 0.895,21.5 2,21.5 L18,21.5 C19.105,21.5 20,20.605 20,19.5 L20,3.5 C20,2.395 19.105,1.5 18,1.5 M18,2.5 C18.551,2.5 19,2.949 19,3.5 L19,19.5 C19,20.051 18.551,20.5 18,20.5 L2,20.5 C1.449,20.5 1,20.051 1,19.5 L1,3.5 C1,2.949 1.449,2.5 2,2.5 L18,2.5" id="Fill-2" fill="#FFFFFF"></path>
                        <line x1="5" y1="0" x2="5" y2="4" id="Stroke-4" stroke="#FFFFFF" stroke-linecap="round" stroke-linejoin="round"></line>
                        <line x1="15" y1="0" x2="15" y2="4" id="Stroke-6" stroke="#FFFFFF" stroke-linecap="round" stroke-linejoin="round"></line>
                        <path d="M13,10.5 L15,10.5 L15,12.5 L13,12.5 L13,10.5 Z M9,10.5 L11,10.5 L11,12.5 L9,12.5 L9,10.5 Z M5,10.5 L7,10.5 L7,12.5 L5,12.5 L5,10.5 Z M13,14.5 L15,14.5 L15,16.5 L13,16.5 L13,14.5 Z M9,14.5 L11,14.5 L11,16.5 L9,16.5 L9,14.5 Z M5,14.5 L7,14.5 L7,16.5 L5,16.5 L5,14.5 Z" id="Combined-Shape" fill="#FFFFFF"></path>
                        <line x1="1" y1="6.5" x2="19" y2="6.5" id="Stroke-10" stroke="#FFFFFF" stroke-linecap="round" stroke-linejoin="round"></line>
                    </g>
                </g>
            </g>
        </g>
    </g>
</svg>