         <svg width="28px" height="28px" viewBox="0 0 28 28" version="1.1" xmlns="http://www.w3.org/2000/svg" xmlns:xlink="http://www.w3.org/1999/xlink">
                                        <title>Icon-GNB-Power IC</title>
                                        <g id="Page-1" stroke="none" stroke-width="1" fill="none" fill-rule="evenodd">
                                            <g id="Icon-GNB" transform="translate(-319.000000, -156.000000)">
                                                <g id="Icon-GNB-Power-IC" transform="translate(319.000000, 156.000000)">
                                                    <rect id="Rectangle" fill="#FFFFFF" opacity="0" x="0" y="0" width="28" height="28"></rect>
                                                    <g id="Group">
                                                        <polygon id="Fill-1" points="0 28 28 28 28 0 0 0"></polygon>
                                                        <g id="Group-6" transform="translate(3.999800, 4.000000)" fill="#FFFFFF">
                                                            <path d="M18.513,0 L1.488,0 C0.666,0 0,0.666 0,1.487 L0,18.513 C0,19.334 0.666,20 1.488,20 L18.513,20 C19.334,20 20,19.334 20,18.513 L20,1.487 C20,0.666 19.334,0 18.513,0 M18.513,1 C18.782,1 19,1.219 19,1.487 L19,18.513 C19,18.781 18.782,19 18.513,19 L1.488,19 C1.219,19 1,18.781 1,18.513 L1,1.487 C1,1.219 1.219,1 1.488,1 L18.513,1" id="Fill-2"></path>
                                                            <path d="M13.2096,2.6491 L8.4856,2.6491 C8.3496,2.6491 8.2286,2.7391 8.1896,2.8701 L5.6476,11.3421 C5.5886,11.5401 5.7376,11.7401 5.9446,11.7401 L8.2556,11.7401 L8.2556,17.0411 C8.2556,17.2331 8.4106,17.3511 8.5686,17.3511 C8.6656,17.3511 8.7626,17.3061 8.8266,17.2071 L14.3166,8.5791 C14.4476,8.3731 14.2996,8.1041 14.0556,8.1041 L10.9826,8.1041 L13.4866,3.0971 C13.5896,2.8911 13.4396,2.6491 13.2096,2.6491 M12.4966,3.3991 L10.3126,7.7681 L9.7696,8.8541 L10.9826,8.8541 L13.2536,8.8541 L9.0056,15.5281 L9.0056,11.7401 L9.0056,10.9901 L8.2556,10.9901 L6.5366,10.9901 L8.8136,3.3991 L12.4966,3.3991" id="Fill-4"></path>
                                                        </g>
                                                    </g>
                                                </g>
                                            </g>
                                        </g>
                                    </svg>