  <svg width="28px" height="28px" viewBox="0 0 28 28" version="1.1" xmlns="http://www.w3.org/2000/svg" xmlns:xlink="http://www.w3.org/1999/xlink">
                                        <title>Icon-GNB-Topic</title>
                                        <g id="Page-1" stroke="none" stroke-width="1" fill="none" fill-rule="evenodd">
                                            <g id="Icon-GNB" transform="translate(-47.000000, -498.000000)">
                                                <g id="Icon-GNB-Topic" transform="translate(47.000000, 498.000000)">
                                                    <rect id="Rectangle" fill="#FFFFFF" opacity="0" x="0" y="0" width="28" height="28"></rect>
                                                    <g id="Group">
                                                        <polygon id="Fill-1" points="0 28 28 28 28 0 0 0"></polygon>
                                                        <g id="Group-6" transform="translate(2.000000, 5.000000)">
                                                            <path d="M20.916,0 L3.084,0 C1.381,0 0,1.381 0,3.084 L0,17 L0,18 L0,19.287 C0,19.715 0.35,19.998 0.715,19.998 C0.889,19.998 1.067,19.933 1.211,19.789 L4,17 L20.916,17 C22.619,17 24,15.619 24,13.916 L24,3.084 C24,1.381 22.619,0 20.916,0 M20.916,1 C22.065,1 23,1.935 23,3.084 L23,13.916 C23,15.065 22.065,16 20.916,16 L4,16 L3.586,16 L3.293,16.293 L1,18.586 L1,18 L1,17 L1,3.084 C1,1.935 1.935,1 3.084,1 L20.916,1" id="Fill-2" fill="#FFFFFF"></path>
                                                            <path d="M14.44,9.9502 L14.971,12.4292 C15.046,12.7832 14.663,13.0562 14.353,12.8682 L12.185,11.5562 C12.056,11.4782 11.895,11.4762 11.764,11.5522 L9.571,12.8222 C9.258,13.0042 8.879,12.7232 8.962,12.3712 L9.54,9.9032 C9.575,9.7562 9.526,9.6022 9.414,9.5022 L7.528,7.8082 C7.259,7.5662 7.408,7.1202 7.769,7.0902 L10.295,6.8772 C10.445,6.8642 10.577,6.7712 10.638,6.6332 L11.665,4.3162 C11.812,3.9852 12.283,3.9902 12.423,4.3232 L13.406,6.6602 C13.464,6.7992 13.594,6.8952 13.744,6.9102 L16.265,7.1722 C16.625,7.2092 16.766,7.6582 16.493,7.8942 L14.574,9.5512 C14.46,9.6502 14.408,9.8032 14.44,9.9502 Z" id="Stroke-4" stroke="#FFFFFF" stroke-width="0.75"></path>
                                                        </g>
                                                    </g>
                                                </g>
                                            </g>
                                        </g>
                                    </svg>