<svg width="28px" height="28px" viewBox="0 0 28 28" version="1.1" xmlns="http://www.w3.org/2000/svg" xmlns:xlink="http://www.w3.org/1999/xlink">
                                        <title>Icon-GNB-ApplicationSpecificService</title>
                                        <g id="Page-1" stroke="none" stroke-width="1" fill="none" fill-rule="evenodd">
                                            <g id="Icon-GNB" transform="translate(-250.000000, -361.000000)">
                                                <g id="Icon-GNB-ApplicationSpecificService" transform="translate(250.000000, 361.000000)">
                                                    <rect id="Rectangle" fill="#FFFFFF" opacity="0" x="0" y="0" width="28" height="28"></rect>
                                                    <g id="Group">
                                                        <polygon id="Fill-1" points="0 28 28 28 28 0 0 0"></polygon>
                                                        <line x1="13.957" y1="2.5375" x2="13.957" y2="4.3945" id="Stroke-2" stroke="#FFFFFF" stroke-linecap="round" stroke-linejoin="round"></line>
                                                        <line x1="5.7639" y1="5.9669" x2="7.0769" y2="7.2799" id="Stroke-3" stroke="#FFFFFF" stroke-linecap="round" stroke-linejoin="round"></line>
                                                        <line x1="2.3954" y1="14.1852" x2="4.2524" y2="14.1852" id="Stroke-4" stroke="#FFFFFF" stroke-linecap="round" stroke-linejoin="round"></line>
                                                        <line x1="5.8247" y1="22.3783" x2="7.1377" y2="21.0653" id="Stroke-5" stroke="#FFFFFF" stroke-linecap="round" stroke-linejoin="round"></line>
                                                        <line x1="22.2361" y1="22.3175" x2="20.9231" y2="21.0045" id="Stroke-6" stroke="#FFFFFF" stroke-linecap="round" stroke-linejoin="round"></line>
                                                        <line x1="25.6046" y1="14.0992" x2="23.7476" y2="14.0992" id="Stroke-7" stroke="#FFFFFF" stroke-linecap="round" stroke-linejoin="round"></line>
                                                        <line x1="22.1753" y1="5.906" x2="20.8623" y2="7.219" id="Stroke-8" stroke="#FFFFFF" stroke-linecap="round" stroke-linejoin="round"></line>
                                                        <g id="Group-127" transform="translate(8.000000, 7.000000)">
                                                            <path d="M6,0 C2.686,0 0,3 0,6 C0,10 3,12 3,13 C3,13.5 4.5,13.75 6,13.75 C7.5,13.75 9,13.5 9,13 C9,12 12,10 12,6 C12,3 9.314,0 6,0 M6,1 C8.862,1 11,3.64 11,6 C11,8.333 9.831,9.892 8.978,11.03 C8.564,11.582 8.216,12.045 8.072,12.528 C7.749,12.625 7.046,12.75 6,12.75 C4.954,12.75 4.251,12.625 3.928,12.528 C3.784,12.045 3.436,11.582 3.022,11.03 C2.169,9.892 1,8.333 1,6 C1,3.64 3.138,1 6,1" id="Fill-9" fill="#FFFFFF"></path>
                                                            <line x1="3.7" y1="15.4926" x2="8.3" y2="15.4926" id="Stroke-11" stroke="#FFFFFF" stroke-linecap="round" stroke-linejoin="round"></line>
                                                            <line x1="4.6964" y1="17.5137" x2="7.3034" y2="17.5137" id="Stroke-13" stroke="#FFFFFF" stroke-linecap="round" stroke-linejoin="round"></line>
                                                            <polygon id="Fill-15" fill="#FFFFFF" points="7.1042 3.7407 6.4412 3.0777 7.1042 2.4157 7.7672 3.0777"></polygon>
                                                            <polygon id="Fill-17" fill="#FFFFFF" points="8.2085 4.8449 7.5455 4.1819 8.2085 3.5199 8.8715 4.1819"></polygon>
                                                            <polygon id="Fill-19" fill="#FFFFFF" points="7.1042 3.7407 6.4412 3.0777 7.1042 2.4157 7.7672 3.0777"></polygon>
                                                            <polygon id="Fill-21" fill="#FFFFFF" points="8.2085 4.8449 7.5455 4.1819 8.2085 3.5199 8.8715 4.1819"></polygon>
                                                            <polygon id="Fill-23" fill="#FFFFFF" points="9.3127 5.9491 8.6497 5.2861 9.3127 4.6241 9.9757 5.2861"></polygon>
                                                            <polygon id="Fill-25" fill="#FFFFFF" points="7.1042 3.7407 6.4412 3.0777 7.1042 2.4157 7.7672 3.0777"></polygon>
                                                            <polygon id="Fill-27" fill="#FFFFFF" points="8.2085 4.8449 7.5455 4.1819 8.2085 3.5199 8.8715 4.1819"></polygon>
                                                            <polygon id="Fill-29" fill="#FFFFFF" points="9.3127 5.9491 8.6497 5.2861 9.3127 4.6241 9.9757 5.2861"></polygon>
                                                            <polygon id="Fill-31" fill="#FFFFFF" points="8.2085 4.8449 7.5455 4.1819 8.2085 3.5199 8.8715 4.1819"></polygon>
                                                            <polygon id="Fill-33" fill="#FFFFFF" points="9.3127 5.9491 8.6497 5.2861 9.3127 4.6241 9.9757 5.2861"></polygon>
                                                            <polygon id="Fill-35" fill="#FFFFFF" points="4.8958 3.7407 4.2328 3.0777 4.8958 2.4157 5.5588 3.0777"></polygon>
                                                            <polygon id="Fill-37" fill="#FFFFFF" points="6 4.8449 5.337 4.1819 6 3.5199 6.663 4.1819"></polygon>
                                                            <polygon id="Fill-39" fill="#FFFFFF" points="7.1042 5.9491 6.4412 5.2861 7.1042 4.6241 7.7672 5.2861"></polygon>
                                                            <polygon id="Fill-41" fill="#FFFFFF" points="6 4.8449 5.337 4.1819 6 3.5199 6.663 4.1819"></polygon>
                                                            <polygon id="Fill-43" fill="#FFFFFF" points="7.1042 5.9491 6.4412 5.2861 7.1042 4.6241 7.7672 5.2861"></polygon>
                                                            <polygon id="Fill-45" fill="#FFFFFF" points="8.2085 7.0534 7.5455 6.3904 8.2085 5.7284 8.8715 6.3904"></polygon>
                                                            <polygon id="Fill-47" fill="#FFFFFF" points="6 4.8449 5.337 4.1819 6 3.5199 6.663 4.1819"></polygon>
                                                            <polygon id="Fill-49" fill="#FFFFFF" points="7.1042 5.9491 6.4412 5.2861 7.1042 4.6241 7.7672 5.2861"></polygon>
                                                            <polygon id="Fill-51" fill="#FFFFFF" points="8.2085 7.0534 7.5455 6.3904 8.2085 5.7284 8.8715 6.3904"></polygon>
                                                            <polygon id="Fill-53" fill="#FFFFFF" points="7.1042 5.9491 6.4412 5.2861 7.1042 4.6241 7.7672 5.2861"></polygon>
                                                            <polygon id="Fill-55" fill="#FFFFFF" points="8.2085 7.0534 7.5455 6.3904 8.2085 5.7284 8.8715 6.3904"></polygon>
                                                            <polygon id="Fill-57" fill="#FFFFFF" points="9.3127 8.1576 8.6497 7.4946 9.3127 6.8326 9.9757 7.4946"></polygon>
                                                            <polygon id="Fill-59" fill="#FFFFFF" points="3.7915 4.8449 3.1285 4.1819 3.7915 3.5199 4.4545 4.1819"></polygon>
                                                            <polygon id="Fill-61" fill="#FFFFFF" points="4.8958 5.9491 4.2328 5.2861 4.8958 4.6241 5.5588 5.2861"></polygon>
                                                            <polygon id="Fill-63" fill="#FFFFFF" points="6 7.0534 5.337 6.3904 6 5.7284 6.663 6.3904"></polygon>
                                                            <polygon id="Fill-65" fill="#FFFFFF" points="4.8958 5.9491 4.2328 5.2861 4.8958 4.6241 5.5588 5.2861"></polygon>
                                                            <polygon id="Fill-67" fill="#FFFFFF" points="6 7.0534 5.337 6.3904 6 5.7284 6.663 6.3904"></polygon>
                                                            <polygon id="Fill-69" fill="#FFFFFF" points="7.1042 8.1576 6.4412 7.4946 7.1042 6.8326 7.7672 7.4946"></polygon>
                                                            <polygon id="Fill-71" fill="#FFFFFF" points="4.8958 5.9491 4.2328 5.2861 4.8958 4.6241 5.5588 5.2861"></polygon>
                                                            <polygon id="Fill-73" fill="#FFFFFF" points="6 7.0534 5.337 6.3904 6 5.7284 6.663 6.3904"></polygon>
                                                            <polygon id="Fill-75" fill="#FFFFFF" points="7.1042 8.1576 6.4412 7.4946 7.1042 6.8326 7.7672 7.4946"></polygon>
                                                            <polygon id="Fill-77" fill="#FFFFFF" points="6 7.0534 5.337 6.3904 6 5.7284 6.663 6.3904"></polygon>
                                                            <polygon id="Fill-79" fill="#FFFFFF" points="7.1042 8.1576 6.4412 7.4946 7.1042 6.8326 7.7672 7.4946"></polygon>
                                                            <polygon id="Fill-81" fill="#FFFFFF" points="8.2085 9.2618 7.5455 8.5988 8.2085 7.9368 8.8715 8.5988"></polygon>
                                                            <polygon id="Fill-83" fill="#FFFFFF" points="2.6873 5.9491 2.0243 5.2861 2.6873 4.6241 3.3503 5.2861"></polygon>
                                                            <polygon id="Fill-85" fill="#FFFFFF" points="3.7915 7.0534 3.1285 6.3904 3.7915 5.7284 4.4545 6.3904"></polygon>
                                                            <polygon id="Fill-87" fill="#FFFFFF" points="4.8958 8.1576 4.2328 7.4946 4.8958 6.8326 5.5588 7.4946"></polygon>
                                                            <polygon id="Fill-89" fill="#FFFFFF" points="3.7915 7.0534 3.1285 6.3904 3.7915 5.7284 4.4545 6.3904"></polygon>
                                                            <polygon id="Fill-91" fill="#FFFFFF" points="4.8958 8.1576 4.2328 7.4946 4.8958 6.8326 5.5588 7.4946"></polygon>
                                                            <polygon id="Fill-93" fill="#FFFFFF" points="6 9.2618 5.337 8.5988 6 7.9368 6.663 8.5988"></polygon>
                                                            <polygon id="Fill-95" fill="#FFFFFF" points="3.7915 7.0534 3.1285 6.3904 3.7915 5.7284 4.4545 6.3904"></polygon>
                                                            <polygon id="Fill-97" fill="#FFFFFF" points="4.8958 8.1576 4.2328 7.4946 4.8958 6.8326 5.5588 7.4946"></polygon>
                                                            <polygon id="Fill-99" fill="#FFFFFF" points="6 9.2618 5.337 8.5988 6 7.9368 6.663 8.5988"></polygon>
                                                            <polygon id="Fill-101" fill="#FFFFFF" points="4.8958 8.1576 4.2328 7.4946 4.8958 6.8326 5.5588 7.4946"></polygon>
                                                            <polygon id="Fill-103" fill="#FFFFFF" points="6 9.2618 5.337 8.5988 6 7.9368 6.663 8.5988"></polygon>
                                                            <polygon id="Fill-105" fill="#FFFFFF" points="7.1042 10.3661 6.4412 9.7031 7.1042 9.0411 7.7672 9.7031"></polygon>
                                                            <polygon id="Fill-107" fill="#FFFFFF" points="2.6873 8.1576 2.0243 7.4946 2.6873 6.8326 3.3503 7.4946"></polygon>
                                                            <polygon id="Fill-109" fill="#FFFFFF" points="3.7915 9.2618 3.1285 8.5988 3.7915 7.9368 4.4545 8.5988"></polygon>
                                                            <polygon id="Fill-111" fill="#FFFFFF" points="2.6873 8.1576 2.0243 7.4946 2.6873 6.8326 3.3503 7.4946"></polygon>
                                                            <polygon id="Fill-113" fill="#FFFFFF" points="3.7915 9.2618 3.1285 8.5988 3.7915 7.9368 4.4545 8.5988"></polygon>
                                                            <polygon id="Fill-115" fill="#FFFFFF" points="4.8958 10.3661 4.2328 9.7031 4.8958 9.0411 5.5588 9.7031"></polygon>
                                                            <polygon id="Fill-117" fill="#FFFFFF" points="2.6873 8.1576 2.0243 7.4946 2.6873 6.8326 3.3503 7.4946"></polygon>
                                                            <polygon id="Fill-119" fill="#FFFFFF" points="3.7915 9.2618 3.1285 8.5988 3.7915 7.9368 4.4545 8.5988"></polygon>
                                                            <polygon id="Fill-121" fill="#FFFFFF" points="4.8958 10.3661 4.2328 9.7031 4.8958 9.0411 5.5588 9.7031"></polygon>
                                                            <polygon id="Fill-123" fill="#FFFFFF" points="3.7915 9.2618 3.1285 8.5988 3.7915 7.9368 4.4545 8.5988"></polygon>
                                                            <polygon id="Fill-125" fill="#FFFFFF" points="4.8958 10.3661 4.2328 9.7031 4.8958 9.0411 5.5588 9.7031"></polygon>
                                                        </g>
                                                    </g>
                                                </g>
                                            </g>
                                        </g>
                                    </svg>