<svg width="28px" height="28px" viewBox="0 0 28 28" version="1.1" xmlns="http://www.w3.org/2000/svg" xmlns:xlink="http://www.w3.org/1999/xlink">
                                        <title>icon-gnb-ssd</title>
                                        <g id="Page-1" stroke="none" stroke-width="1" fill="none" fill-rule="evenodd">
                                            <g id="Icon-GNB" transform="translate(-114.000000, -75.000000)">
                                                <g id="icon-gnb-ssd" transform="translate(114.000000, 75.000000)">
                                                    <rect id="Rectangle" fill="#FFFFFF" opacity="0" x="0" y="0" width="28" height="28"></rect>
                                                    <g id="Group">
                                                        <polygon id="Fill-1" points="0 28 28 28 28 0 0 0"></polygon>
                                                        <g id="icon" transform="translate(2.000000, 4.000000)">
                                                            <path d="M21,0 L3,0 C1.343,0 0,1.343 0,3 L0,17 C0,18.657 1.343,20 3,20 L21,20 C22.657,20 24,18.657 24,17 L24,3 C24,1.343 22.657,0 21,0 M21,1 C22.103,1 23,1.897 23,3 L23,17 C23,18.103 22.103,19 21,19 L3,19 C1.897,19 1,18.103 1,17 L1,3 C1,1.897 1.897,1 3,1 L21,1" id="Fill-2" fill="#FFFFFF"></path>
                                                            <path d="M24,3.8507 L20.653,3.8507 C20.175,3.8507 19.788,4.2377 19.788,4.7147 L19.788,14.9867 C19.788,15.4637 20.175,15.8507 20.653,15.8507 L24,15.8507 L24,3.8507 Z M23.25,4.6007 L23.25,15.1007 L20.653,15.1007 C20.59,15.1007 20.538,15.0497 20.538,14.9867 L20.538,4.7147 C20.538,4.6517 20.59,4.6007 20.653,4.6007 L23.25,4.6007 L23.25,4.6007 Z" id="Fill-4" fill="#FFFFFF"></path>
                                                            <line x1="21.4933" y1="6.8933" x2="23.7993" y2="6.8933" id="Stroke-6" stroke="#FFFFFF" stroke-width="0.75"></line>
                                                            <line x1="21.4933" y1="9.8507" x2="23.7993" y2="9.8507" id="Stroke-8" stroke="#FFFFFF" stroke-width="0.75"></line>
                                                            <line x1="21.4933" y1="12.8082" x2="23.7993" y2="12.8082" id="Stroke-10" stroke="#FFFFFF" stroke-width="0.75"></line>
                                                            <path d="M21.6417,2.3939 C21.6417,2.7529 21.3507,3.0439 20.9917,3.0439 C20.6327,3.0439 20.3417,2.7529 20.3417,2.3939 C20.3417,2.0349 20.6327,1.7439 20.9917,1.7439 C21.3507,1.7439 21.6417,2.0349 21.6417,2.3939" id="Fill-12" fill="#FFFFFF"></path>
                                                            <path d="M21.6417,17.3076 C21.6417,17.6666 21.3507,17.9576 20.9917,17.9576 C20.6327,17.9576 20.3417,17.6666 20.3417,17.3076 C20.3417,16.9486 20.6327,16.6576 20.9917,16.6576 C21.3507,16.6576 21.6417,16.9486 21.6417,17.3076" id="Fill-14" fill="#FFFFFF"></path>
                                                            <path d="M3.6583,2.3939 C3.6583,2.7529 3.3673,3.0439 3.0083,3.0439 C2.6493,3.0439 2.3583,2.7529 2.3583,2.3939 C2.3583,2.0349 2.6493,1.7439 3.0083,1.7439 C3.3673,1.7439 3.6583,2.0349 3.6583,2.3939" id="Fill-16" fill="#FFFFFF"></path>
                                                            <path d="M3.6583,17.3076 C3.6583,17.6666 3.3673,17.9576 3.0083,17.9576 C2.6493,17.9576 2.3583,17.6666 2.3583,17.3076 C2.3583,16.9486 2.6493,16.6576 3.0083,16.6576 C3.3673,16.6576 3.6583,16.9486 3.6583,17.3076" id="Fill-18" fill="#FFFFFF"></path>
                                                            <path d="M14.5,5.4063 L7.5,5.4063 C6.672,5.4063 6,6.0783 6,6.9063 L6,12.7953 C6,13.6233 6.672,14.2953 7.5,14.2953 L14.5,14.2953 C15.328,14.2953 16,13.6233 16,12.7953 L16,6.9063 C16,6.0783 15.328,5.4063 14.5,5.4063 M14.5,6.1563 C14.914,6.1563 15.25,6.4923 15.25,6.9063 L15.25,12.7953 C15.25,13.2083 14.914,13.5453 14.5,13.5453 L7.5,13.5453 C7.086,13.5453 6.75,13.2083 6.75,12.7953 L6.75,6.9063 C6.75,6.4923 7.086,6.1563 7.5,6.1563 L14.5,6.1563" id="Fill-20" fill="#FFFFFF"></path>
                                                        </g>
                                                    </g>
                                                </g>
                                            </g>
                                        </g>
                                    </svg>