<svg width="28px" height="28px" viewBox="0 0 28 28" version="1.1" xmlns="http://www.w3.org/2000/svg" xmlns:xlink="http://www.w3.org/1999/xlink">
                                        <title>Icon-GNB-LED</title>
                                        <defs>
                                            <polygon id="path-1" points="0 28 28 28 28 0 0 0"></polygon>
                                        </defs>
                                        <g id="Page-1" stroke="none" stroke-width="1" fill="none" fill-rule="evenodd">
                                            <g id="Icon-GNB" transform="translate(-115.000000, -236.000000)">
                                                <g id="Icon-GNB-LED" transform="translate(115.000000, 236.000000)">
                                                    <rect id="Rectangle" fill="#FFFFFF" opacity="0" x="0" y="0" width="28" height="28"></rect>
                                                    <g id="icon">
                                                        <mask id="mask-2" fill="white">
                                                            <use xlink:href="#path-1"></use>
                                                        </mask>
                                                        <g id="Mask"></g>
                                                        <path d="M18.2960936,21 L9.70390636,21 C8.5664912,21 7.62494805,20.0880428 7.48871035,18.9127008 L7,18.9127008 L7,16.3928465 L7.47174124,16.3928465 L7.47174124,11.6071535 L7,11.6071535 L7,9.08729923 L7.48871035,9.08729923 C7.62543289,7.91195717 8.5664912,7 9.70390636,7 L18.2960936,7 C19.4262363,7 20.3614767,7.91195717 20.4967447,9.08729923 L21,9.08729923 L21,11.6071535 L20.5137138,11.6071535 L20.5137138,16.3928465 L21,16.3928465 L21,18.9127008 L20.4967447,18.9127008 C20.3614767,20.0880428 19.4257515,21 18.2960936,21 Z M8.43286127,18.2604104 C8.43286127,19.2185287 9.16156299,20 10.0579818,20 L17.9420182,20 C18.8308742,20 19.5537925,19.2190088 19.5537925,18.2604104 L19.765552,18.2604104 L19.765552,18.075123 L20,18.075123 L20,16.6624265 L19.5537925,16.6624265 L19.5537925,11.3375735 L20,11.3375735 L20,9.924877 L19.765552,9.924877 L19.765552,9.73958958 L19.5537925,9.73958958 C19.5537925,8.78147126 18.8308742,8 17.9420182,8 L10.0579818,8 C9.16200786,8 8.43286127,8.78099124 8.43286127,9.73958958 L8.2211018,9.73958958 L8.2211018,9.924877 L8,9.924877 L8,11.3375735 L8.43286127,11.3375735 L8.43286127,16.6624265 L8,16.6624265 L8,18.075123 L8.2211018,18.075123 L8.2211018,18.2604104 L8.43286127,18.2604104 L8.43286127,18.2604104 Z" id="Shape" fill="#FFFFFF" fill-rule="nonzero" mask="url(#mask-2)"></path>
                                                        <g id="Group-2" mask="url(#mask-2)" fill-rule="nonzero" stroke="#FFFFFF" stroke-width="0.75">
                                                            <g transform="translate(2.000000, 2.000000)" id="Path">
                                                                <path d="M11.4186625,-0.174374095 C12.3034034,-0.427460354 12.4524405,-0.285579098 12.5820873,-0.186277441 C12.7700849,-0.0422825947 12.8744463,0.161834908 12.875,0.389180237 L12.875,0.389180237 L12.875,2.62282639 C12.875,2.84321036 12.7704471,3.04772987 12.5763202,3.19183214 C12.428281,3.30172312 12.2240499,3.375 11.9918919,3.375 C11.7658153,3.375 11.5635057,3.30003925 11.4161425,3.18704384 C11.2274166,3.04233227 11.125,2.83832327 11.125,2.62282639 L11.125,2.62282639 L11.125,0.389180237 C11.125,0.186717702 11.2274072,-0.0230546689 11.4186625,-0.174374095 Z"></path>
                                                                <path d="M11.4186625,20.8256259 C12.3034034,20.5725396 12.4524405,20.7144209 12.5820873,20.8137226 C12.7700849,20.9577174 12.8744463,21.1618349 12.875,21.3891802 L12.875,21.3891802 L12.875,23.6228264 C12.875,23.8432104 12.7704471,24.0477299 12.5763202,24.1918321 C12.428281,24.3017231 12.2240499,24.375 11.9918919,24.375 C11.7658153,24.375 11.5635057,24.3000393 11.4161425,24.1870438 C11.2274166,24.0423323 11.125,23.8383233 11.125,23.6228264 L11.125,23.6228264 L11.125,21.3891802 C11.125,21.1867177 11.2274072,20.9769453 11.4186625,20.8256259 Z"></path>
                                                                <path d="M2.60970522,11.1250832 C2.88711046,11.1213388 3.09637197,11.2443314 3.21925178,11.4348738 C3.31850435,11.5689433 3.38562058,11.7625205 3.37352157,12.019029 C3.37120418,12.2399843 3.29702683,12.4385144 3.18573302,12.583811 C3.04128897,12.7723861 2.83762956,12.875 2.62199654,12.875 L2.62199654,12.875 L0.388995698,12.875 C0.166329546,12.875 -0.0371009986,12.7728045 -0.181446543,12.5903723 C-0.298039833,12.443015 -0.375,12.2396415 -0.375,12.0083648 C-0.375,11.6834659 -0.234291968,11.4194561 -0.048490748,11.2791219 L-0.048490748,11.2791219 Z"></path>
                                                                <path d="M23.6097052,11.1250832 C23.8871105,11.1213388 24.096372,11.2443314 24.2192518,11.4348738 C24.3185043,11.5689433 24.3856206,11.7625205 24.3735216,12.019029 C24.3712042,12.2399843 24.2970268,12.4385144 24.185733,12.583811 C24.041289,12.7723861 23.8376296,12.875 23.6219965,12.875 L23.6219965,12.875 L21.3889957,12.875 C21.1663295,12.875 20.962899,12.7728045 20.8185535,12.5903723 C20.7019602,12.443015 20.625,12.2396415 20.625,12.0083648 C20.625,11.6834659 20.765708,11.4194561 20.9515093,11.2791219 L20.9515093,11.2791219 Z"></path>
                                                            </g>
                                                        </g>
                                                        <g id="Group-2" mask="url(#mask-2)" fill-rule="nonzero" stroke="#FFFFFF" stroke-width="0.75">
                                                            <g transform="translate(14.000000, 14.000000) rotate(-45.000000) translate(-14.000000, -14.000000) translate(0.585786, 0.585786)" id="Path">
                                                                <path d="M12.8328761,-0.174374095 C13.717617,-0.427460354 13.866654,-0.285579098 13.9963008,-0.186277441 C14.1842984,-0.0422825947 14.2886599,0.161834908 14.2892136,0.389180237 L14.2892136,0.389180237 L14.2892136,2.62282639 C14.2892136,2.84321036 14.1846607,3.04772987 13.9905338,3.19183214 C13.8424946,3.30172312 13.6382635,3.375 13.4061055,3.375 C13.1800289,3.375 12.9777193,3.30003925 12.8303561,3.18704384 C12.6416301,3.04233227 12.5392136,2.83832327 12.5392136,2.62282639 L12.5392136,2.62282639 L12.5392136,0.389180237 C12.5392136,0.186717702 12.6416207,-0.0230546689 12.8328761,-0.174374095 Z"></path>
                                                                <path d="M12.8328761,23.654053 C13.717617,23.4009668 13.866654,23.542848 13.9963008,23.6421497 C14.1842984,23.7861445 14.2886599,23.990262 14.2892136,24.2176074 L14.2892136,24.2176074 L14.2892136,26.4512535 C14.2892136,26.6716375 14.1846607,26.876157 13.9905338,27.0202593 C13.8424946,27.1301502 13.6382635,27.2034271 13.4061055,27.2034271 C13.1800289,27.2034271 12.9777193,27.1284664 12.8303561,27.015471 C12.6416301,26.8707594 12.5392136,26.6667504 12.5392136,26.4512535 L12.5392136,26.4512535 L12.5392136,24.2176074 C12.5392136,24.0151448 12.6416207,23.8053725 12.8328761,23.654053 Z"></path>
                                                                <path d="M2.60970522,12.5392967 C2.88711046,12.5355524 3.09637197,12.6585449 3.21925178,12.8490874 C3.31850435,12.9831569 3.38562058,13.1767341 3.37352157,13.4332426 C3.37120418,13.6541979 3.29702683,13.8527279 3.18573302,13.9980246 C3.04128897,14.1865997 2.83762956,14.2892136 2.62199654,14.2892136 L2.62199654,14.2892136 L0.388995698,14.2892136 C0.166329546,14.2892136 -0.0371009986,14.1870181 -0.181446543,14.0045859 C-0.298039833,13.8572286 -0.375,13.653855 -0.375,13.4225784 C-0.375,13.0976795 -0.234291968,12.8336696 -0.048490748,12.6933355 L-0.048490748,12.6933355 Z"></path>
                                                                <path d="M26.4381323,12.5392967 C26.7155376,12.5355524 26.9247991,12.6585449 27.0476789,12.8490874 C27.1469315,12.9831569 27.2140477,13.1767341 27.2019487,13.4332426 C27.1996313,13.6541979 27.125454,13.8527279 27.0141601,13.9980246 C26.8697161,14.1865997 26.6660567,14.2892136 26.4504237,14.2892136 L26.4504237,14.2892136 L24.2174228,14.2892136 C23.9947567,14.2892136 23.7913261,14.1870181 23.6469806,14.0045859 C23.5303873,13.8572286 23.4534271,13.653855 23.4534271,13.4225784 C23.4534271,13.0976795 23.5941352,12.8336696 23.7799364,12.6933355 L23.7799364,12.6933355 Z"></path>
                                                            </g>
                                                        </g>
                                                    </g>
                                                </g>
                                            </g>
                                        </g>
                                    </svg>