<?xml version="1.0" encoding="UTF-8"?>
<svg width="28px" height="28px" viewBox="0 0 28 28" version="1.1" xmlns="http://www.w3.org/2000/svg" xmlns:xlink="http://www.w3.org/1999/xlink">
    <title>Icon-GNB-CorporateCitizenship</title>
    <g id="Page-1" stroke="none" stroke-width="1" fill="none" fill-rule="evenodd">
        <g id="Icon-GNB" transform="translate(-182.000000, -760.000000)">
            <g id="Icon-GNB-CorporateCitizenship" transform="translate(182.000000, 760.000000)">
                <rect id="Rectangle" fill="#FFFFFF" opacity="0" x="0" y="0" width="28" height="28"></rect>
                <g id="Group">
                    <polygon id="Fill-1" points="0 28 28 28 28 0 0 0"></polygon>
                    <g id="Group-24" transform="translate(2.057000, 3.755300)" stroke="#FFFFFF" stroke-linecap="round" stroke-linejoin="round">
                        <path d="M2.533,12.525 C0.987,11.232 0,9.26 0,7.052 C0,3.157 3.07,0 6.857,0 C8.868,0 10.677,0.89 11.931,2.307" id="Stroke-2"></path>
                        <path d="M2.8996,13.7942 L2.8996,13.7942 C2.4126,13.2932 2.4126,12.4802 2.8996,11.9792 L4.0286,10.8182 C4.5166,10.3172 5.3066,10.3172 5.7936,10.8182 L5.7936,10.8182 C6.2806,11.3192 6.2806,12.1322 5.7936,12.6332 L4.6646,13.7942 C4.1766,14.2952 3.3866,14.2952 2.8996,13.7942 Z" id="Stroke-4"></path>
                        <path d="M4.7393,15.686 L4.7393,15.686 C4.2523,15.185 4.2523,14.372 4.7393,13.871 L5.8683,12.71 C6.3563,12.209 7.1463,12.209 7.6333,12.71 L7.6333,12.71 C8.1203,13.211 8.1203,14.024 7.6333,14.525 L6.5043,15.686 C6.0163,16.187 5.2263,16.187 4.7393,15.686 Z" id="Stroke-6"></path>
                        <path d="M6.579,17.5778 L6.579,17.5778 C6.092,17.0768 6.092,16.2638 6.579,15.7628 L7.708,14.6018 C8.196,14.1008 8.986,14.1008 9.473,14.6018 L9.473,14.6018 C9.96,15.1028 9.96,15.9158 9.473,16.4168 L8.344,17.5778 C7.856,18.0788 7.066,18.0788 6.579,17.5778 Z" id="Stroke-8"></path>
                        <path d="M8.4187,19.4696 L8.4187,19.4696 C7.9317,18.9686 7.9317,18.1556 8.4187,17.6546 L9.5477,16.4936 C10.0357,15.9926 10.8257,15.9926 11.3127,16.4936 L11.3127,16.4936 C11.7997,16.9946 11.7997,17.8076 11.3127,18.3086 L10.1837,19.4696 C9.6957,19.9706 8.9057,19.9706 8.4187,19.4696 Z" id="Stroke-10"></path>
                        <path d="M20.7932,13.0222 C22.7202,11.7742 24.0002,9.5662 24.0002,7.0522 C24.0002,3.1572 20.9292,0.0002 17.1422,0.0002 C15.0712,0.0002 13.2152,0.9432 11.9582,2.4352 L10.7962,3.6652 L8.5502,5.9752 C7.9022,6.6412 7.9022,7.7212 8.5502,8.3872 L8.5862,8.4242 C9.2342,9.0902 10.2842,9.0902 10.9322,8.4242 L12.7712,6.6152 L15.0072,6.6152 L17.7172,9.4022 L17.7162,9.4032 L20.0752,11.8272" id="Stroke-12"></path>
                        <path d="M11.2502,14.1455 L14.8132,17.8095 C15.3002,18.3105 15.3002,19.1225 14.8132,19.6245 L14.8132,19.6245 C14.3262,20.1255 13.5362,20.1255 13.0482,19.6245 L11.6462,18.1815" id="Stroke-14"></path>
                        <path d="M13.0899,12.2536 L16.6529,15.9176 C17.1399,16.4186 17.1399,17.2306 16.6529,17.7326 L16.6529,17.7326 C16.1659,18.2336 15.3759,18.2336 14.8879,17.7326 L11.3249,14.0686" id="Stroke-16"></path>
                        <path d="M14.9296,10.3618 L18.4926,14.0258 C18.9796,14.5268 18.9796,15.3388 18.4926,15.8408 L18.4926,15.8408 C18.0056,16.3418 17.2156,16.3418 16.7276,15.8408 L13.1646,12.1768" id="Stroke-18"></path>
                        <path d="M16.7693,8.47 L20.3323,12.134 C20.8193,12.635 20.8193,13.447 20.3323,13.949 L20.3323,13.949 C19.8453,14.45 19.0553,14.45 18.5673,13.949 L15.0043,10.285" id="Stroke-20"></path>
                        <line x1="15.2845" y1="6.8736" x2="17.1145" y2="4.9926" id="Stroke-22"></line>
                    </g>
                </g>
            </g>
        </g>
    </g>
</svg>