<?xml version="1.0" encoding="UTF-8"?>
<svg width="28px" height="28px" viewBox="0 0 28 28" version="1.1" xmlns="http://www.w3.org/2000/svg" xmlns:xlink="http://www.w3.org/1999/xlink">
    <title>Icon-GNB-Tools&amp;Resources</title>
    <g id="Page-1" stroke="none" stroke-width="1" fill="none" fill-rule="evenodd">
        <g id="Icon-GNB" transform="translate(-112.000000, -620.000000)">
            <g id="Icon-GNB-Tools&amp;Resources" transform="translate(112.000000, 620.000000)">
                <rect id="Rectangle" fill="#FFFFFF" opacity="0" x="0" y="0" width="28" height="28"></rect>
                <g id="Group">
                    <polygon id="Fill-1" points="0 28 28 28 28 0 0 0"></polygon>
                    <path d="M18.535,4.9225 C16.074,4.9225 14.076,6.9165 14.07,9.3825 C14.068,9.8025 14.144,10.2005 14.251,10.5865 L5.65,19.1525 C4.788,20.0115 4.784,21.4085 5.642,22.2725 L5.642,22.2725 C6.073,22.7055 6.638,22.9225 7.204,22.9225 C7.766,22.9225 8.328,22.7085 8.757,22.2805 L17.377,13.6955 C17.745,13.7945 18.124,13.8645 18.523,13.8655 C18.527,13.8655 18.532,13.8655 18.536,13.8655 C20.997,13.8655 22.994,11.8715 23.0010067,9.4065 C23.002,8.8575 22.891,8.3385 22.712,7.8525 L21.567,8.9935 C21.392,9.1675 21.164,9.2545 20.936,9.2545 C20.707,9.2545 20.477,9.1665 20.303,8.9905 L18.912,7.5905 C18.564,7.2395 18.565,6.6735 18.915,6.3245 L20.042,5.2025 C19.573,5.0335 19.074,4.9235 18.547,4.9225 C18.543,4.9225 18.539,4.9225 18.535,4.9225 M17.926,5.9765 C17.486,6.7035 17.577,7.6655 18.203,8.2955 L19.593,9.6955 C19.951,10.0555 20.428,10.2545 20.936,10.2545 C21.303,10.2545 21.654,10.1505 21.955,9.9575 C21.685,11.6045 20.252,12.8655 18.526,12.8655 C18.261,12.8655 17.979,12.8215 17.637,12.7295 L17.08,12.5795 L16.671,12.9865 L8.052,21.5725 C7.825,21.7985 7.524,21.9225 7.204,21.9225 C6.882,21.9225 6.579,21.7965 6.352,21.5675 C5.883,21.0955 5.885,20.3305 6.356,19.8615 L14.956,11.2945 L15.371,10.8825 L15.214,10.3185 C15.115,9.9605 15.069,9.6635 15.07,9.3855 C15.074,7.6835 16.309,6.2645 17.926,5.9765" id="Fill-2" fill="#FFFFFF"></path>
                </g>
            </g>
        </g>
    </g>
</svg>