<?xml version="1.0" encoding="UTF-8"?>
<svg width="28px" height="28px" viewBox="0 0 28 28" version="1.1" xmlns="http://www.w3.org/2000/svg" xmlns:xlink="http://www.w3.org/1999/xlink">
    <title>Icon-GNB-Labor&amp;HumanRight</title>
    <g id="Page-1" stroke="none" stroke-width="1" fill="none" fill-rule="evenodd">
        <g id="Icon-GNB" transform="translate(-115.000000, -760.000000)">
            <g id="Icon-GNB-Labor&amp;HumanRight" transform="translate(115.000000, 760.000000)">
                <rect id="Rectangle" fill="#FFFFFF" opacity="0" x="0" y="0" width="28" height="28"></rect>
                <g id="Group">
                    <polygon id="Fill-1" points="0 28 28 28 28 0 0 0"></polygon>
                    <polygon id="Fill-1" points="0 28 28 28 28 0 0 0"></polygon>
                    <g id="Group-12" transform="translate(3.056100, 2.498200)">
                        <path d="M16.76,16.685 L18.655,14.721 C19.179,14.178 19.179,13.299 18.655,12.756 L18.655,12.756 C18.132,12.214 17.283,12.214 16.76,12.756 L12.772,16.889 C12.565,17.104 12.449,17.395 12.449,17.698 L12.449,21.454 C12.449,21.756 12.685,22 12.976,22 L16.827,22 C17.119,22 17.355,21.756 17.355,21.454 L17.355,20.856 C17.355,20.553 17.471,20.262 17.678,20.048 L21.454,16.134 C21.661,15.92 21.777,15.629 21.777,15.325 L22,8.25 C21.934,7.506 21.31,6.95 20.59,6.995 L20.59,6.995 C19.908,7.037 19.367,7.605 19.335,8.312 L18.655,12.756" id="Stroke-2" stroke="#FFFFFF" stroke-linecap="round" stroke-linejoin="round"></path>
                        <path d="M5.24,16.685 L3.345,14.721 C2.821,14.178 2.821,13.299 3.345,12.756 L3.345,12.756 C3.868,12.214 4.717,12.214 5.24,12.756 L9.228,16.889 C9.435,17.104 9.551,17.395 9.551,17.698 L9.551,21.454 C9.551,21.756 9.315,22 9.024,22 L5.173,22 C4.881,22 4.645,21.756 4.645,21.454 L4.645,20.856 C4.645,20.553 4.529,20.262 4.322,20.048 L0.546,16.134 C0.339,15.92 0.223,15.629 0.223,15.325 L0,8.25 C0.066,7.506 0.69,6.95 1.41,6.995 L1.41,6.995 C2.092,7.037 2.633,7.605 2.665,8.312 L3.345,12.756" id="Stroke-4" stroke="#FFFFFF" stroke-linecap="round" stroke-linejoin="round"></path>
                        <path d="M10.942,2.5781 C9.514,2.5781 8.356,3.7431 8.356,5.1801 C8.356,6.6171 9.514,7.7821 10.942,7.7821 C12.37,7.7821 13.528,6.6171 13.528,5.1801 C13.528,3.7431 12.37,2.5781 10.942,2.5781 M10.942,3.5781 C11.817,3.5781 12.528,4.2971 12.528,5.1801 C12.528,6.0631 11.817,6.7821 10.942,6.7821 C10.067,6.7821 9.356,6.0631 9.356,5.1801 C9.356,4.2971 10.067,3.5781 10.942,3.5781" id="Fill-6" fill="#FFFFFF"></path>
                        <path d="M20.301,5.4 C18.413,2.173 14.934,0 10.942,0 C6.95,0 3.471,2.173 1.583,5.4" id="Stroke-8" stroke="#FFFFFF" stroke-linecap="round" stroke-linejoin="round"></path>
                        <path d="M12.2152,7.4816 L9.6682,7.4816 C8.4322,7.4816 7.3152,8.1046 6.6462,9.0856 C6.3812,9.4736 6.4062,9.9916 6.6672,10.3826 C7.5942,11.7686 9.1562,12.6856 10.9422,12.6856 C12.7272,12.6856 14.2902,11.7686 15.2162,10.3826 C15.4772,9.9916 15.5022,9.4736 15.2382,9.0856 C14.5692,8.1046 13.4512,7.4816 12.2152,7.4816 M12.2152,8.4816 C13.0922,8.4816 13.9132,8.9176 14.4112,9.6486 C14.4342,9.6816 14.4292,9.7606 14.3852,9.8266 C13.6072,10.9906 12.3202,11.6856 10.9422,11.6856 C9.5642,11.6856 8.2772,10.9906 7.4992,9.8266 C7.4552,9.7606 7.4502,9.6816 7.4722,9.6486 C7.9702,8.9176 8.7912,8.4816 9.6682,8.4816 L12.2152,8.4816" id="Fill-10" fill="#FFFFFF"></path>
                    </g>
                </g>
            </g>
        </g>
    </g>
</svg>