        <svg width="28px" height="28px" viewBox="0 0 28 28" version="1.1" xmlns="http://www.w3.org/2000/svg" xmlns:xlink="http://www.w3.org/1999/xlink">
                                        <title>Icon-GNB-ProcessTechnology</title>
                                        <g id="Page-1" stroke="none" stroke-width="1" fill="none" fill-rule="evenodd">
                                            <g id="Icon-GNB" transform="translate(-47.000000, -361.000000)">
                                                <g id="Icon-GNB-ProcessTechnology" transform="translate(47.000000, 361.000000)">
                                                    <rect id="Rectangle" fill="#FFFFFF" opacity="0" x="0" y="0" width="28" height="28"></rect>
                                                    <g id="Group">
                                                        <polygon id="Fill-1" points="0 28 28 28 28 0 0 0"></polygon>
                                                        <g id="Group-14" transform="translate(6.499900, 3.000000)">
                                                            <path d="M8.7501,3.5 C8.7501,4.19 8.1901,4.75 7.5001,4.75 C6.8101,4.75 6.2501,4.19 6.2501,3.5 C6.2501,2.81 6.8101,2.25 7.5001,2.25 C8.1901,2.25 8.7501,2.81 8.7501,3.5" id="Fill-2" fill="#FFFFFF"></path>
                                                            <line x1="3.5001" y1="16" x2="3.5001" y2="22.5" id="Stroke-4" stroke="#FFFFFF" stroke-linecap="round" stroke-linejoin="round"></line>
                                                            <line x1="7.5001" y1="16" x2="7.5001" y2="22.5" id="Stroke-6" stroke="#FFFFFF" stroke-linecap="round" stroke-linejoin="round"></line>
                                                            <line x1="11.5001" y1="16" x2="11.5001" y2="22.5" id="Stroke-8" stroke="#FFFFFF" stroke-linecap="round" stroke-linejoin="round"></line>
                                                            <line x1="0.0001" y1="7" x2="15.0001" y2="7" id="Stroke-10" stroke="#FFFFFF" stroke-width="0.75"></line>
                                                            <path d="M11.411,0 L3.589,0 C3.214,0 2.857,0.157 2.603,0.433 L0.353,2.884 C0.126,3.131 -8.8817842e-16,3.454 -8.8817842e-16,3.789 L-8.8817842e-16,14.661 C-8.8817842e-16,15.401 0.599,16 1.339,16 L13.662,16 C14.401,16 15,15.401 15,14.661 L15,3.789 C15,3.454 14.874,3.131 14.647,2.884 L12.397,0.433 C12.143,0.157 11.786,0 11.411,0 M11.411,1 C11.506,1 11.596,1.04 11.66,1.11 L13.911,3.56 C13.968,3.623 14,3.704 14,3.789 L14,14.661 C14,14.848 13.848,15 13.662,15 L1.339,15 C1.152,15 1,14.848 1,14.661 L1,3.789 C1,3.704 1.032,3.623 1.089,3.56 L3.34,1.11 C3.404,1.04 3.495,1 3.589,1 L11.411,1" id="Fill-12" fill="#FFFFFF"></path>
                                                        </g>
                                                    </g>
                                                </g>
                                            </g>
                                        </g>
                                    </svg>