<?xml version="1.0" encoding="UTF-8"?>
<svg width="28px" height="28px" viewBox="0 0 28 28" version="1.1" xmlns="http://www.w3.org/2000/svg" xmlns:xlink="http://www.w3.org/1999/xlink">
    <title>Icon-GNB-Quality Support</title>
    <g id="Page-1" stroke="none" stroke-width="1" fill="none" fill-rule="evenodd">
        <g id="Icon-GNB" transform="translate(-47.000000, -623.000000)">
            <g id="Icon-GNB-Quality-Support" transform="translate(47.000000, 623.000000)">
                <rect id="Rectangle" fill="#FFFFFF" opacity="0" x="0" y="0" width="28" height="28"></rect>
                <g id="Group">
                    <polygon id="Fill-1" points="0 28 28 28 28 0 0 0"></polygon>
                    <g id="Group-8" transform="translate(2.000200, 2.000000)">
                        <path d="M11.9998,4.5 C7.8578,4.5 4.4998,7.858 4.4998,12 C4.4998,16.142 7.8578,19.5 11.9998,19.5 C16.1418,19.5 19.4998,16.142 19.4998,12 C19.4998,7.858 16.1418,4.5 11.9998,4.5 M11.9998,5.5 C15.5838,5.5 18.4998,8.416 18.4998,12 C18.4998,15.584 15.5838,18.5 11.9998,18.5 C8.4158,18.5 5.4998,15.584 5.4998,12 C5.4998,8.416 8.4158,5.5 11.9998,5.5" id="Fill-2" fill="#FFFFFF"></path>
                        <path d="M12.231,0 L9.487,1.843 L6.2,1.492 L4.745,4.46 L1.723,5.8 L1.947,9.098 L0,11.769 L1.843,14.513 L1.492,17.8 L4.46,19.255 L5.8,22.277 L9.098,22.053 L11.769,24 L14.513,22.157 L17.8,22.508 L19.255,19.54 L22.277,18.2 L22.053,14.902 L24,12.231 L22.157,9.487 L22.508,6.2 L19.54,4.745 L18.2,1.723 L14.902,1.947 L12.231,0 Z M12.207,1.22 L14.313,2.755 L14.607,2.97 L14.97,2.945 L17.57,2.768 L18.625,5.15 L18.773,5.483 L19.099,5.643 L21.439,6.79 L21.163,9.381 L21.124,9.743 L21.327,10.045 L22.779,12.208 L21.245,14.313 L21.03,14.607 L21.055,14.97 L21.231,17.57 L18.849,18.626 L18.517,18.773 L18.357,19.1 L17.21,21.439 L14.619,21.163 L14.257,21.124 L13.955,21.327 L11.792,22.78 L9.687,21.245 L9.393,21.03 L9.03,21.055 L6.43,21.232 L5.374,18.85 L5.227,18.517 L4.9,18.357 L2.561,17.21 L2.837,14.619 L2.876,14.257 L2.673,13.955 L1.22,11.792 L2.755,9.687 L2.969,9.393 L2.945,9.03 L2.768,6.43 L5.15,5.374 L5.483,5.227 L5.643,4.9 L6.79,2.561 L9.381,2.837 L9.742,2.876 L10.044,2.673 L12.207,1.22 Z" id="Fill-4" fill="#FFFFFF"></path>
                        <polyline id="Stroke-6" stroke="#FFFFFF" stroke-width="0.75" stroke-linecap="round" points="9.1688 11.0568 11.7798 13.7258 15.7388 9.8158"></polyline>
                    </g>
                </g>
            </g>
        </g>
    </g>
</svg>