<?xml version="1.0" encoding="UTF-8"?>
<svg width="28px" height="28px" viewBox="0 0 28 28" version="1.1" xmlns="http://www.w3.org/2000/svg" xmlns:xlink="http://www.w3.org/1999/xlink">
    <title>Icon-GNB-SustainableSupplyChain</title>
    <g id="Page-1" stroke="none" stroke-width="1" fill="none" fill-rule="evenodd">
        <g id="Icon-GNB" transform="translate(-248.000000, -760.000000)">
            <g id="Icon-GNB-SustainableSupplyChain" transform="translate(248.000000, 760.000000)">
                <rect id="Rectangle" fill="#FFFFFF" opacity="0" x="0" y="0" width="28" height="28"></rect>
                <g id="Group">
                    <polygon id="Fill-1" points="0 28 28 28 28 0 0 0"></polygon>
                    <line x1="15.4297" y1="24.1248" x2="22.0187" y2="20.5898" id="Stroke-2" stroke="#FFFFFF" stroke-linecap="round"></line>
                    <line x1="5.6225" y1="20.4997" x2="12.4435" y2="24.1437" id="Stroke-3" stroke="#FFFFFF" stroke-linecap="round"></line>
                    <line x1="4" y1="9.8402" x2="4" y2="17.9582" id="Stroke-4" stroke="#FFFFFF" stroke-linecap="round"></line>
                    <line x1="12.4488" y1="3.8531" x2="5.9928" y2="7.4241" id="Stroke-5" stroke="#FFFFFF" stroke-linecap="round"></line>
                    <line x1="22.2838" y1="7.5561" x2="15.6088" y2="3.8851" id="Stroke-6" stroke="#FFFFFF" stroke-linecap="round"></line>
                    <line x1="24" y1="18.1071" x2="24" y2="9.9211" id="Stroke-7" stroke="#FFFFFF" stroke-linecap="round"></line>
                    <g id="Group-36" transform="translate(3.280440, 1.942800)">
                        <path d="M10.70376,0 C9.59876,0 8.70376,0.895 8.70376,2 C8.70376,3.105 9.59876,4 10.70376,4 C11.80876,4 12.70376,3.105 12.70376,2 C12.70376,0.895 11.80876,0 10.70376,0 M10.70376,1 C11.25476,1 11.70376,1.449 11.70376,2 C11.70376,2.551 11.25476,3 10.70376,3 C10.15276,3 9.70376,2.551 9.70376,2 C9.70376,1.449 10.15276,1 10.70376,1" id="Fill-8" fill="#FFFFFF"></path>
                        <line x1="10.70376" y1="4.0226" x2="10.70376" y2="6.0226" id="Stroke-10" stroke="#FFFFFF" stroke-width="0.75" stroke-linecap="round"></line>
                        <path d="M2.01786,4.9973 C1.32686,4.9973 0.65486,5.3563 0.28386,5.9973 C-0.26814,6.9543 0.0598599997,8.1773 1.01586,8.7293 C1.33086,8.9113 1.67486,8.9983 2.01386,8.9983 C2.70486,8.9983 3.37786,8.6393 3.74786,7.9973 C4.29986,7.0413 3.97286,5.8183 3.01586,5.2653 C2.70086,5.0833 2.35686,4.9973 2.01786,4.9973 M2.01786,5.9973 L2.01786,5.9973 C2.19386,5.9973 2.36186,6.0423 2.51586,6.1313 C2.99386,6.4073 3.15786,7.0203 2.88186,7.4973 C2.70386,7.8063 2.37086,7.9983 2.01386,7.9983 C1.83786,7.9983 1.66986,7.9523 1.51586,7.8633 C1.03886,7.5883 0.87386,6.9753 1.14986,6.4973 C1.32786,6.1893 1.66086,5.9973 2.01786,5.9973" id="Fill-12" fill="#FFFFFF"></path>
                        <line x1="3.76766" y1="8.009" x2="5.49966" y2="9.009" id="Stroke-14" stroke="#FFFFFF" stroke-width="0.75" stroke-linecap="round"></line>
                        <path d="M1.99826,15.02 C1.65926,15.02 1.31526,15.106 1.00026,15.288 C0.0432599997,15.841 -0.28374,17.064 0.26826,18.02 C0.63826,18.662 1.31026,19.021 2.00226,19.021 C2.34126,19.021 2.68526,18.934 3.00026,18.752 C3.95626,18.2 4.28426,16.977 3.73226,16.02 C3.36126,15.379 2.68926,15.02 1.99826,15.02 M1.99826,16.02 C2.35526,16.02 2.68826,16.212 2.86626,16.52 C3.14226,16.998 2.97726,17.611 2.50026,17.886 C2.34626,17.975 2.17826,18.021 2.00226,18.021 C1.64526,18.021 1.31226,17.829 1.13426,17.52 C0.85826,17.043 1.02226,16.43 1.50026,16.154 C1.65426,16.065 1.82226,16.02 1.99826,16.02" id="Fill-16" fill="#FFFFFF"></path>
                        <line x1="3.75186" y1="16.009" x2="5.48386" y2="15.009" id="Stroke-18" stroke="#FFFFFF" stroke-width="0.75" stroke-linecap="round"></line>
                        <path d="M10.67216,20.0453 C9.56716,20.0453 8.67216,20.9403 8.67216,22.0453 C8.67216,23.1503 9.56716,24.0453 10.67216,24.0453 C11.77716,24.0453 12.67216,23.1503 12.67216,22.0453 C12.67216,20.9403 11.77716,20.0453 10.67216,20.0453 M10.67216,21.0453 C11.22316,21.0453 11.67216,21.4943 11.67216,22.0453 C11.67216,22.5963 11.22316,23.0453 10.67216,23.0453 C10.12116,23.0453 9.67216,22.5963 9.67216,22.0453 C9.67216,21.4943 10.12116,21.0453 10.67216,21.0453" id="Fill-20" fill="#FFFFFF"></path>
                        <line x1="10.67216" y1="20.0227" x2="10.67216" y2="18.0227" id="Stroke-22" stroke="#FFFFFF" stroke-width="0.75" stroke-linecap="round"></line>
                        <path d="M19.36176,15.0473 C18.67076,15.0473 17.99876,15.4063 17.62776,16.0473 C17.07576,17.0043 17.40376,18.2273 18.35976,18.7793 C18.67476,18.9613 19.01876,19.0483 19.35776,19.0483 C20.04876,19.0483 20.72176,18.6893 21.09176,18.0473 C21.64376,17.0913 21.31676,15.8683 20.35976,15.3153 C20.04476,15.1333 19.70076,15.0473 19.36176,15.0473 M19.36176,16.0473 L19.36176,16.0473 C19.53776,16.0473 19.70576,16.0923 19.85976,16.1813 C20.33776,16.4573 20.50176,17.0703 20.22576,17.5473 C20.04776,17.8563 19.71476,18.0483 19.35776,18.0483 C19.18176,18.0483 19.01376,18.0023 18.85976,17.9133 C18.38276,17.6383 18.21776,17.0253 18.49376,16.5473 C18.67176,16.2393 19.00476,16.0473 19.36176,16.0473" id="Fill-24" fill="#FFFFFF"></path>
                        <line x1="17.60826" y1="16.0363" x2="15.87626" y2="15.0363" id="Stroke-26" stroke="#FFFFFF" stroke-linecap="round"></line>
                        <path d="M19.37386,5.0247 C19.03486,5.0247 18.69086,5.1107 18.37586,5.2927 C17.41886,5.8457 17.09186,7.0687 17.64386,8.0247 C18.01386,8.6667 18.68686,9.0257 19.37786,9.0257 C19.71686,9.0257 20.06086,8.9387 20.37586,8.7567 C21.33186,8.2047 21.65986,6.9817 21.10786,6.0247 C20.73686,5.3837 20.06486,5.0247 19.37386,5.0247 M19.37386,6.0247 C19.73086,6.0247 20.06386,6.2167 20.24186,6.5247 C20.51786,7.0027 20.35286,7.6157 19.87586,7.8907 C19.72186,7.9797 19.55386,8.0257 19.37786,8.0257 C19.02086,8.0257 18.68786,7.8337 18.50986,7.5247 C18.23386,7.0477 18.39786,6.4347 18.87586,6.1587 C19.02986,6.0697 19.19786,6.0247 19.37386,6.0247" id="Fill-28" fill="#FFFFFF"></path>
                        <line x1="17.62406" y1="8.0363" x2="15.89206" y2="9.0363" id="Stroke-30" stroke="#FFFFFF" stroke-width="0.75" stroke-linecap="round"></line>
                        <line x1="7.72516" y1="16.8558" x2="11.99716" y2="10.0148" id="Stroke-32" stroke="#FFFFFF" stroke-width="0.75" stroke-linecap="round" stroke-linejoin="round"></line>
                        <path d="M13.37116,7.6363 C13.37116,7.6363 14.83216,10.9023 13.52816,12.9903 C12.22316,15.0773 8.64716,15.1963 8.64716,15.1963 C8.64716,15.1963 7.18616,11.9303 8.49116,9.8423 C9.79516,7.7543 13.37116,7.6363 13.37116,7.6363 Z" id="Stroke-34" stroke="#FFFFFF" stroke-width="0.75"></path>
                    </g>
                </g>
            </g>
        </g>
    </g>
</svg>