<?xml version="1.0" encoding="UTF-8"?>
<svg width="96px" height="96px" viewBox="0 0 96 96" version="1.1" xmlns="http://www.w3.org/2000/svg" xmlns:xlink="http://www.w3.org/1999/xlink">
    <title>*Icon / Bold / Action / Online</title>
    <g id="*Icon-/-Bold-/-Action-/-Online" stroke="none" stroke-width="1" fill="none" fill-rule="evenodd">
        <path d="M48.0140015,2 C73.4180015,2.007 94.0080015,22.61 93.9999979,48.013 C93.9930715,73.15999 73.8088228,93.5877985 48.7614845,93.99384 L47.9870015,94 C22.5830015,93.993 1.99300151,73.392 1.99999794,47.987 C2.00792149,22.84199 22.1921801,2.4122411 47.2395168,2.00616062 L48.0140015,2 Z M28.3036131,51.9945538 C28.8510822,61.2339363 31.2856588,69.955617 35.1698015,76.384 C37.7643655,80.6778207 40.842914,83.6851315 43.9903599,85.093923 L43.9989979,51.999 L28.3036131,51.9945538 Z M51.9989979,52.001 L51.9908942,85.0919953 C59.5305308,81.7161302 66.7184032,69.1930557 67.7008923,52.0061578 L51.9989979,52.001 Z M10.2058576,51.9895041 C11.1019237,60.6278062 14.8991425,68.6346712 21.1230015,74.862 C23.3191754,77.0597043 25.7371117,78.9552609 28.3263675,80.5278216 C23.8272848,73.0844504 20.864059,63.1027398 20.288433,51.9930474 L10.2058576,51.9895041 Z M75.7099847,52.0086636 C75.1295603,63.0938807 72.1725656,73.0543823 67.6859854,80.4894775 C77.5772282,74.4755914 84.5184289,64.0756942 85.7898547,52.0120321 L75.7099847,52.0086636 Z M67.6746355,15.4721784 C72.17507,22.921175 75.136879,32.9008657 75.7122221,44.0079533 L85.7945954,44.011542 C84.8993724,35.3730418 81.1021008,27.3664366 74.8780015,21.138 C72.8507641,19.1093498 70.6345693,17.338151 68.2690919,15.8408012 L67.6746355,15.4721784 Z M52.0112429,10.9065245 L52.0019979,44.001 L67.6970903,44.0064451 C67.1632262,34.9914593 64.8332596,26.4692689 61.1117509,20.0891949 L60.8308015,19.616 C58.2365122,15.3226339 55.1583409,12.3155053 52.0112429,10.9065245 Z M44.0113805,10.9067121 C36.4719003,14.2807377 29.2828132,26.8052372 28.2998135,43.9948454 L44.0019979,43.999 L44.0113805,10.9067121 Z M28.3167891,15.5075466 L28.0023216,15.6996861 C18.2785319,21.7422754 11.4685609,32.0510391 10.2102199,43.988969 L20.2907087,43.992337 C20.8585351,33.1516195 23.6988971,23.3864971 28.0198908,16.0069832 L28.3167891,15.5075466 Z" id="Icon-/-Bold-/-Action-/-Online" fill="#fff" fill-rule="nonzero"></path>
    </g>
</svg>