<svg width="32" height="32" xmlns="http://www.w3.org/2000/svg">
    <g fill="#000" fill-rule="evenodd">
        <circle opacity=".07" cx="16" cy="16" r="16"/>
        <path d="M22.27 12.993c.006.13.01.26.01.393 0 4.007-3.051 8.629-8.63 8.629A8.588 8.588 0 0 1 9 20.653c.237.028.479.041.723.041a6.084 6.084 0 0 0 3.768-1.298 3.036 3.036 0 0 1-2.834-2.106 3.06 3.06 0 0 0 1.37-.052 3.034 3.034 0 0 1-2.433-2.974v-.039c.409.228.877.365 1.374.38a3.033 3.033 0 0 1-.939-4.05 8.612 8.612 0 0 0 6.252 3.17 3.033 3.033 0 0 1 5.168-2.766 6.07 6.07 0 0 0 1.927-.736 3.048 3.048 0 0 1-1.334 1.678 6.086 6.086 0 0 0 1.742-.478 6.174 6.174 0 0 1-1.514 1.57"/>
    </g>
</svg>
